<svg width="847" height="847" viewBox="0 0 847 847" fill="none" xmlns="http://www.w3.org/2000/svg">
<circle cx="423" cy="423" r="423" fill="url(#paint0_linear_26_69)"/>
<path d="M504.241 386.943H522.332L524.868 393.029C527.348 390.775 529.658 389.197 531.8 388.295C534.054 387.394 537.38 386.943 541.775 386.943H556.992C561.726 391.564 565.446 397.538 568.151 404.865C570.856 412.191 572.209 420.25 572.209 429.042C572.209 447.866 566.573 462.632 555.301 473.34H540.93C534.956 473.34 530.222 471.762 526.728 468.606V498.701H504.241V386.943ZM526.728 455.587H542.959C547.129 448.486 549.215 439.863 549.215 429.719C549.215 419.574 547.073 411.233 542.79 404.696H526.728V455.587ZM623.376 404.696H610.696C609.005 406.724 607.596 409.542 606.469 413.149C605.454 416.756 604.947 420.25 604.947 423.632H629.125C629.35 420.25 628.899 416.756 627.772 413.149C626.645 409.43 625.18 406.612 623.376 404.696ZM646.37 455.587V473.34H603.426C595.535 468.042 589.956 461.505 586.687 453.727C583.531 445.837 581.953 437.891 581.953 429.888C581.953 411.402 588.942 397.087 602.918 386.943H630.308C637.86 392.466 642.989 398.327 645.694 404.527C648.399 410.726 649.752 416.982 649.752 423.294C649.752 429.606 649.245 435.016 648.23 439.525H606.131C606.469 442.117 607.427 445.104 609.005 448.486C610.696 451.755 612.499 454.122 614.415 455.587H646.37ZM661.266 473.34V386.943H677.328L681.555 396.073C686.064 389.986 691.756 386.943 698.632 386.943H705.226V409.599H683.753V473.34H661.266Z" fill="white"/>
<path d="M347.487 324.448L302.923 316.638C302.337 316.535 301.743 316.834 301.433 317.388L240.391 426.589C239.872 427.519 240.366 428.696 241.35 428.868L307.115 440.394C307.893 440.531 308.404 441.319 308.258 442.156L293.393 526.97C293.112 528.574 295.035 529.431 295.946 528.108L377.398 409.751C378.036 408.825 377.561 407.528 376.519 407.345L318.074 397.102C317.139 396.938 316.633 395.858 317.058 394.936L348.503 326.614C348.928 325.692 348.422 324.612 347.487 324.448Z" fill="white" stroke="white" stroke-width="1.53801"/>
<path fill-rule="evenodd" clip-rule="evenodd" d="M303.888 317.538C304.377 316.711 305.327 316.273 306.273 316.438L354.238 324.845C355.746 325.109 356.583 326.742 355.917 328.121L323.03 396.19C322.808 396.65 323.087 397.194 323.589 397.282L386.493 408.307C388.177 408.602 388.966 410.561 387.958 411.941L302.011 529.51C300.57 531.481 297.455 530.155 297.876 527.75L312.741 442.936C312.814 442.518 312.534 442.119 312.116 442.046L241.333 429.64C239.745 429.362 238.925 427.583 239.744 426.195L303.888 317.538ZM306.008 317.953C305.692 317.898 305.375 318.044 305.213 318.32L241.069 426.977C240.796 427.44 241.069 428.033 241.598 428.125L312.382 440.531C313.637 440.751 314.476 441.947 314.256 443.202L299.391 528.016C299.251 528.817 300.289 529.259 300.769 528.602L386.716 411.033C387.052 410.573 386.789 409.92 386.228 409.822L323.324 398.797C321.816 398.533 320.979 396.9 321.645 395.521L354.532 327.452C354.754 326.992 354.475 326.448 353.972 326.36L306.008 317.953Z" fill="white" stroke="white" stroke-width="1.53801"/>
<path d="M266.04 189.935H372.082V207.566C372.082 212.223 368.306 215.999 363.649 215.999H274.472C269.815 215.999 266.04 212.223 266.04 207.566V189.935Z" fill="white" stroke="white" stroke-width="1.53317"/>
<mask id="path-6-inside-1_26_69" fill="white">
<path fill-rule="evenodd" clip-rule="evenodd" d="M241.727 192.847H392.592C412.914 192.847 429.388 209.322 429.388 229.643V324.428H447.786V229.643C447.786 199.161 423.075 174.449 392.592 174.449H241.727C211.245 174.449 186.533 199.161 186.533 229.643V616.003C186.533 646.486 211.245 671.197 241.727 671.197H392.592C423.075 671.197 447.786 646.486 447.786 616.003V498.596H429.388V616.003C429.388 636.325 412.914 652.799 392.592 652.799H241.727C221.405 652.799 204.931 636.325 204.931 616.003V229.643C204.931 209.322 221.406 192.847 241.727 192.847Z"/>
</mask>
<path fill-rule="evenodd" clip-rule="evenodd" d="M241.727 192.847H392.592C412.914 192.847 429.388 209.322 429.388 229.643V324.428H447.786V229.643C447.786 199.161 423.075 174.449 392.592 174.449H241.727C211.245 174.449 186.533 199.161 186.533 229.643V616.003C186.533 646.486 211.245 671.197 241.727 671.197H392.592C423.075 671.197 447.786 646.486 447.786 616.003V498.596H429.388V616.003C429.388 636.325 412.914 652.799 392.592 652.799H241.727C221.405 652.799 204.931 636.325 204.931 616.003V229.643C204.931 209.322 221.406 192.847 241.727 192.847Z" fill="white"/>
<path d="M438.587 324.428V498.596H456.985V324.428H438.587ZM420.189 324.428V498.596H438.587V324.428H420.189ZM429.388 324.428H410.99V342.826H429.388V324.428ZM447.786 324.428V342.826H466.184V324.428H447.786ZM447.786 498.596H466.184V480.198H447.786V498.596ZM429.388 498.596V480.198H410.99V498.596H429.388ZM241.727 211.245H392.592V174.449H241.727V211.245ZM223.329 229.643C223.329 219.482 231.566 211.245 241.727 211.245V174.449C211.245 174.449 186.533 199.161 186.533 229.643H223.329ZM223.329 616.003V229.643H186.533V616.003H223.329ZM241.727 634.401C231.566 634.401 223.329 626.164 223.329 616.003H186.533C186.533 646.486 211.244 671.197 241.727 671.197V634.401ZM392.592 634.401H241.727V671.197H392.592V634.401ZM410.99 616.003C410.99 626.164 402.753 634.401 392.592 634.401V671.197C423.075 671.197 447.786 646.486 447.786 616.003H410.99ZM392.592 211.245C402.753 211.245 410.99 219.482 410.99 229.643H447.786C447.786 199.161 423.075 174.449 392.592 174.449V211.245ZM204.931 229.643C204.931 209.322 221.406 192.847 241.727 192.847V156.051C201.084 156.051 168.135 189 168.135 229.643H204.931ZM204.931 616.003V229.643H168.135V616.003H204.931ZM241.727 652.799C221.405 652.799 204.931 636.325 204.931 616.003H168.135C168.135 656.647 201.084 689.596 241.727 689.596V652.799ZM392.592 652.799H241.727V689.596H392.592V652.799ZM429.388 616.003C429.388 636.325 412.914 652.799 392.592 652.799V689.596C433.236 689.596 466.184 656.647 466.184 616.003H429.388ZM392.592 192.847C412.914 192.847 429.388 209.322 429.388 229.643H466.184C466.184 189 433.236 156.051 392.592 156.051V192.847ZM241.727 192.847H392.592V156.051H241.727V192.847ZM410.99 229.643V324.428H447.786V229.643H410.99ZM429.388 229.643V324.428H466.184V229.643H429.388ZM429.388 342.826H447.786V306.03H429.388V342.826ZM429.388 498.596V616.003H466.184V498.596H429.388ZM410.99 498.596V616.003H447.786V498.596H410.99ZM447.786 480.198H429.388V516.994H447.786V480.198Z" fill="white" mask="url(#path-6-inside-1_26_69)"/>
<mask id="path-8-inside-2_26_69" fill="white">
<path d="M272.893 638.082C272.893 636.05 274.54 634.402 276.572 634.402H357.732C359.764 634.402 361.411 636.05 361.411 638.082L-nan -nanL-nan -nanL361.411 638.082C361.411 640.114 359.764 641.762 357.732 641.762H276.572C274.54 641.762 272.893 640.114 272.893 638.082L-nan -nanL272.893 638.082Z"/>
</mask>
<path d="M272.893 638.082C272.893 636.05 274.54 634.402 276.572 634.402H357.732C359.764 634.402 361.411 636.05 361.411 638.082L-nan -nanL-nan -nanL361.411 638.082C361.411 640.114 359.764 641.762 357.732 641.762H276.572C274.54 641.762 272.893 640.114 272.893 638.082L-nan -nanL272.893 638.082Z" fill="white"/>
<path d="M276.572 638.082H357.732V630.723H276.572V638.082ZM357.732 638.082H276.572V645.441H357.732V638.082ZM276.572 638.082L276.572 638.082H269.213C269.213 642.146 272.508 645.441 276.572 645.441V638.082ZM357.732 638.082L357.732 638.082V645.441C361.796 645.441 365.091 642.146 365.091 638.082H357.732ZM357.732 638.082L357.732 638.082H365.091C365.091 634.018 361.796 630.723 357.732 630.723V638.082ZM276.572 630.723C272.508 630.723 269.213 634.018 269.213 638.082H276.572L276.572 638.082V630.723Z" fill="white" mask="url(#path-8-inside-2_26_69)"/>
<path d="M274.732 638.082C274.732 637.066 275.556 636.242 276.572 636.242H357.732C358.748 636.242 359.571 637.066 359.571 638.082C359.571 639.098 358.748 639.922 357.732 639.922H276.572C275.556 639.922 274.732 639.098 274.732 638.082Z" fill="white" stroke="white" stroke-width="3.67962"/>
<path fill-rule="evenodd" clip-rule="evenodd" d="M420.091 372.087V395.731C420.091 397.006 419.058 398.039 417.784 398.039C416.509 398.039 415.477 397.006 415.477 395.731V371.318C415.477 369.194 417.198 367.473 419.322 367.473H429.572C431.696 367.473 433.417 369.194 433.417 371.318V381.315C433.417 382.589 432.384 383.622 431.11 383.622C429.836 383.622 428.803 382.589 428.803 381.315V372.087H420.091Z" fill="white" stroke="white" stroke-width="4.61403" stroke-linecap="round"/>
<path fill-rule="evenodd" clip-rule="evenodd" d="M448.145 372.087V395.731H443.531V371.318C443.531 369.194 445.253 367.473 447.376 367.473H457.627C459.75 367.473 461.472 369.194 461.472 371.318V395.731H456.858V372.087H448.145Z" fill="white" stroke="white" stroke-width="4.61403"/>
<path d="M474.002 407.623C474.002 402.603 470.244 398.461 465.388 397.856L474.002 397.781V407.623ZM401.167 397.78H410.242C405.156 398.174 401.167 402.423 401.167 407.593L401.167 397.78Z" fill="white" stroke="white" stroke-width="15.7481"/>
<path fill-rule="evenodd" clip-rule="evenodd" d="M432.382 496.838C430.763 496.838 429.451 495.36 429.451 493.538V484.085H423.59V493.538C423.59 499.005 427.526 503.438 432.382 503.438H443.826C448.682 503.438 452.618 499.005 452.618 493.538V484.085H446.756V493.538C446.756 495.36 445.444 496.838 443.826 496.838H432.382Z" fill="white" stroke="white" stroke-width="4.61403"/>
<path d="M402.39 615.161H402.752L403.036 614.937C408.007 611.024 411.919 605.772 414.789 599.218C417.663 592.655 419.092 585.46 419.092 577.647V539.572V538.528H418.049H398.024H396.981V539.572V577.939C396.981 585.717 395.453 592.309 392.446 597.757H384.465C381.476 592.59 379.945 585.957 379.945 577.793V539.572V538.528H378.902H358.877H357.834V539.572V578.376C357.834 586.094 359.264 593.148 362.142 599.521C365.014 605.881 368.926 611.029 373.89 614.937L374.174 615.161H374.536H402.39ZM424.589 510.957H423.546V512V531.3V532.343H424.589H452.695H453.739V531.3V512V510.957H452.695H424.589ZM463.283 538.528H462.24V539.572V636V637.043H463.283H483.308H484.352V636V612.132C487.463 614.173 491.355 615.161 495.956 615.161H508.754H509.161L509.461 614.885C519.754 605.411 524.854 592.369 524.854 575.896C524.854 568.199 523.631 561.118 521.172 554.664C518.716 548.22 515.324 542.926 510.977 538.814L510.675 538.528H510.26H496.709C492.753 538.528 489.637 538.918 487.448 539.766L487.44 539.769L487.431 539.773C485.713 540.474 483.92 541.598 482.054 543.116L480.352 539.16L480.081 538.528H479.394H463.283ZM534.596 538.528H533.553V539.572V636V637.043H534.596H554.621H555.664V636V612.132C558.776 614.173 562.667 615.161 567.269 615.161H580.067H580.474L580.773 614.885C591.066 605.411 596.166 592.369 596.166 575.896C596.166 568.199 594.944 561.118 592.484 554.664C590.029 548.22 586.636 542.926 582.289 538.814L581.987 538.528H581.572H568.021C564.066 538.528 560.95 538.918 558.761 539.766L558.752 539.769L558.744 539.773C557.025 540.474 555.233 541.598 553.366 543.116L551.665 539.16L551.393 538.528H550.706H534.596ZM605.016 614.118V615.161H606.059H626.084H627.128V614.118V560.163H645.206H646.249V559.12V539.572V538.528H645.206H639.334C633.391 538.528 628.384 540.887 624.359 545.514L621.304 539.122L621.021 538.528H620.363H606.059H605.016V539.572V614.118ZM696.82 615.161H697.221L697.519 614.893C707.812 605.618 712.92 592.965 712.92 577.064C712.92 568.824 711.96 561.892 710.003 556.301C708.038 550.59 704.387 544.782 699.104 538.876L698.793 538.528H698.326H663.094H662.63L662.32 538.873C657.331 544.396 653.645 550.141 651.283 556.11L651.28 556.118L651.277 556.125C649.014 562.105 647.897 569.091 647.897 577.064C647.897 592.965 653.006 605.618 663.299 614.893L663.597 615.161H663.997H696.82ZM502.29 576.48C502.29 584.843 500.567 591.92 497.169 597.757H484.352V555.933H497.052C500.52 561.29 502.29 568.117 502.29 576.48ZM573.603 576.48C573.603 584.843 571.879 591.92 568.482 597.757H555.664V555.933H568.364C571.832 561.29 573.603 568.117 573.603 576.48ZM690.507 575.605C690.507 583.875 688.83 591.252 685.498 597.757H675.29C671.989 591.917 670.31 584.695 670.31 576.042C670.31 567.289 671.991 560.626 675.227 555.933H685.438C688.785 560.811 690.507 567.337 690.507 575.605Z" fill="white" fill-opacity="0.972549" stroke="white" stroke-width="2.08655"/>
<defs>
<linearGradient id="paint0_linear_26_69" x1="119.25" y1="78.75" x2="474.75" y2="578.25" gradientUnits="userSpaceOnUse">
<stop stop-color="#FA8C14"/>
<stop offset="1" stop-color="#F95A08"/>
</linearGradient>
</defs>
</svg>
