<svg width="847" height="847" viewBox="0 0 847 847" fill="none" xmlns="http://www.w3.org/2000/svg">
<circle cx="423.137" cy="423.137" r="423.137" fill="url(#paint0_linear_4_5270)"/>
<path d="M484.489 387.017H502.58L505.116 393.104C507.596 390.849 509.906 389.271 512.048 388.37C514.302 387.468 517.628 387.017 522.023 387.017H537.24C541.974 391.638 545.694 397.612 548.399 404.939C551.104 412.265 552.457 420.325 552.457 429.117C552.457 447.94 546.821 462.706 535.549 473.414H521.178C515.204 473.414 510.47 471.836 506.976 468.68V498.775H484.489V387.017ZM506.976 455.661H523.207C527.378 448.56 529.463 439.937 529.463 429.793C529.463 419.648 527.321 411.307 523.038 404.77H506.976V455.661ZM603.624 404.77H590.944C589.253 406.799 587.844 409.617 586.717 413.224C585.702 416.83 585.195 420.325 585.195 423.706H609.373C609.598 420.325 609.147 416.83 608.02 413.224C606.893 409.504 605.428 406.686 603.624 404.77ZM626.619 455.661V473.414H583.674C575.783 468.116 570.204 461.579 566.935 453.801C563.779 445.911 562.201 437.965 562.201 429.962C562.201 411.476 569.19 397.161 583.166 387.017H610.556C618.108 392.54 623.237 398.401 625.942 404.601C628.647 410.8 630 417.056 630 423.368C630 429.68 629.493 435.091 628.478 439.599H586.379C586.717 442.192 587.675 445.179 589.253 448.56C590.944 451.829 592.747 454.196 594.663 455.661H626.619ZM641.514 473.414V387.017H657.576L661.803 396.147C666.312 390.06 672.004 387.017 678.88 387.017H685.474V409.673H664.001V473.414H641.514Z" fill="white"/>
<path d="M327.739 324.522L283.175 316.712C282.589 316.609 281.995 316.908 281.685 317.463L220.643 426.663C220.124 427.593 220.618 428.77 221.602 428.942L287.367 440.469C288.145 440.605 288.656 441.393 288.509 442.23L273.645 527.044C273.364 528.648 275.287 529.505 276.198 528.182L357.65 409.825C358.288 408.899 357.813 407.602 356.771 407.419L298.326 397.176C297.391 397.012 296.885 395.932 297.31 395.01L328.755 326.688C329.18 325.766 328.673 324.686 327.739 324.522Z" fill="white" stroke="white" stroke-width="1.53801"/>
<path fill-rule="evenodd" clip-rule="evenodd" d="M284.14 317.608C284.628 316.781 285.579 316.343 286.525 316.509L334.49 324.915C335.998 325.179 336.835 326.813 336.169 328.191L303.282 396.26C303.06 396.72 303.339 397.264 303.841 397.352L366.745 408.377C368.429 408.672 369.218 410.631 368.21 412.011L282.263 529.58C280.822 531.552 277.707 530.226 278.128 527.821L292.993 443.006C293.066 442.588 292.786 442.189 292.368 442.116L221.585 429.711C219.997 429.432 219.177 427.653 219.996 426.265L284.14 317.608ZM286.259 318.024C285.944 317.968 285.627 318.114 285.464 318.39L221.321 427.047C221.048 427.51 221.321 428.103 221.85 428.196L292.634 440.601C293.889 440.821 294.728 442.017 294.508 443.272L279.643 528.086C279.503 528.888 280.541 529.33 281.021 528.673L366.968 411.103C367.304 410.643 367.041 409.99 366.48 409.892L303.576 398.867C302.068 398.603 301.231 396.97 301.897 395.591L334.784 327.522C335.006 327.063 334.727 326.518 334.224 326.43L286.259 318.024Z" fill="white" stroke="white" stroke-width="1.53801"/>
<path d="M246.29 190.013H352.332V207.644C352.332 212.301 348.556 216.077 343.899 216.077H254.722C250.065 216.077 246.29 212.301 246.29 207.644V190.013Z" fill="white" stroke="white" stroke-width="1.53317"/>
<mask id="path-6-inside-1_4_5270" fill="white">
<path fill-rule="evenodd" clip-rule="evenodd" d="M221.977 192.925H372.842C393.164 192.925 409.638 209.4 409.638 229.722V324.506H428.036V229.722C428.036 199.239 403.325 174.527 372.842 174.527H221.977C191.495 174.527 166.783 199.239 166.783 229.722V616.081C166.783 646.564 191.495 671.276 221.977 671.276H372.842C403.325 671.276 428.036 646.564 428.036 616.081V498.674H409.638V616.081C409.638 636.403 393.164 652.877 372.842 652.877H221.977C201.655 652.877 185.181 636.403 185.181 616.081V229.722C185.181 209.4 201.656 192.925 221.977 192.925Z"/>
</mask>
<path fill-rule="evenodd" clip-rule="evenodd" d="M221.977 192.925H372.842C393.164 192.925 409.638 209.4 409.638 229.722V324.506H428.036V229.722C428.036 199.239 403.325 174.527 372.842 174.527H221.977C191.495 174.527 166.783 199.239 166.783 229.722V616.081C166.783 646.564 191.495 671.276 221.977 671.276H372.842C403.325 671.276 428.036 646.564 428.036 616.081V498.674H409.638V616.081C409.638 636.403 393.164 652.877 372.842 652.877H221.977C201.655 652.877 185.181 636.403 185.181 616.081V229.722C185.181 209.4 201.656 192.925 221.977 192.925Z" fill="white"/>
<path d="M418.837 324.506V498.674H437.235V324.506H418.837ZM400.439 324.506V498.674H418.837V324.506H400.439ZM409.638 324.506H391.24V342.904H409.638V324.506ZM428.036 324.506V342.904H446.434V324.506H428.036ZM428.036 498.674H446.434V480.276H428.036V498.674ZM409.638 498.674V480.276H391.24V498.674H409.638ZM221.977 211.324H372.842V174.527H221.977V211.324ZM203.579 229.722C203.579 219.561 211.816 211.324 221.977 211.324V174.527C191.495 174.527 166.783 199.239 166.783 229.722H203.579ZM203.579 616.081V229.722H166.783V616.081H203.579ZM221.977 634.479C211.816 634.479 203.579 626.242 203.579 616.081H166.783C166.783 646.564 191.494 671.276 221.977 671.276V634.479ZM372.842 634.479H221.977V671.276H372.842V634.479ZM391.24 616.081C391.24 626.242 383.003 634.479 372.842 634.479V671.276C403.325 671.276 428.036 646.564 428.036 616.081H391.24ZM372.842 211.324C383.003 211.324 391.24 219.561 391.24 229.722H428.036C428.036 199.239 403.325 174.527 372.842 174.527V211.324ZM185.181 229.722C185.181 209.4 201.656 192.925 221.977 192.925V156.129C181.334 156.129 148.385 189.078 148.385 229.722H185.181ZM185.181 616.081V229.722H148.385V616.081H185.181ZM221.977 652.878C201.655 652.878 185.181 636.403 185.181 616.081H148.385C148.385 656.725 181.334 689.674 221.977 689.674V652.878ZM372.842 652.878H221.977V689.674H372.842V652.878ZM409.638 616.081C409.638 636.403 393.164 652.878 372.842 652.878V689.674C413.486 689.674 446.434 656.725 446.434 616.081H409.638ZM372.842 192.925C393.164 192.925 409.638 209.4 409.638 229.722H446.434C446.434 189.078 413.486 156.129 372.842 156.129V192.925ZM221.977 192.925H372.842V156.129H221.977V192.925ZM391.24 229.722V324.506H428.036V229.722H391.24ZM409.638 229.722V324.506H446.434V229.722H409.638ZM409.638 342.904H428.036V306.108H409.638V342.904ZM409.638 498.674V616.081H446.434V498.674H409.638ZM391.24 498.674V616.081H428.036V498.674H391.24ZM428.036 480.276H409.638V517.072H428.036V480.276Z" fill="white" mask="url(#path-6-inside-1_4_5270)"/>
<mask id="path-8-inside-2_4_5270" fill="white">
<path d="M253.141 638.156C253.141 636.124 254.788 634.477 256.82 634.477H337.98C340.012 634.477 341.659 636.124 341.659 638.156L-nan -nanL341.659 638.156C341.659 640.188 340.012 641.836 337.98 641.836H256.82C254.788 641.836 253.141 640.188 253.141 638.156L-nan -nanL253.141 638.156Z"/>
</mask>
<path d="M253.141 638.156C253.141 636.124 254.788 634.477 256.82 634.477H337.98C340.012 634.477 341.659 636.124 341.659 638.156L-nan -nanL341.659 638.156C341.659 640.188 340.012 641.836 337.98 641.836H256.82C254.788 641.836 253.141 640.188 253.141 638.156L-nan -nanL253.141 638.156Z" fill="white"/>
<path d="M256.82 638.156H337.98V630.797H256.82V638.156ZM337.98 638.156H256.82V645.515H337.98V638.156ZM256.82 638.156L256.82 638.156H249.461C249.461 642.221 252.756 645.515 256.82 645.515V638.156ZM337.98 638.156V638.156V645.515C342.044 645.515 345.339 642.221 345.339 638.156H337.98ZM337.98 638.156V638.156H345.339C345.339 634.092 342.044 630.797 337.98 630.797V638.156ZM256.82 630.797C252.756 630.797 249.461 634.092 249.461 638.156H256.82L256.82 638.156V630.797Z" fill="white" mask="url(#path-8-inside-2_4_5270)"/>
<path d="M254.98 638.156C254.98 637.14 255.804 636.316 256.82 636.316H337.98C338.996 636.316 339.819 637.14 339.819 638.156C339.819 639.172 338.996 639.996 337.98 639.996H256.82C255.804 639.996 254.98 639.172 254.98 638.156Z" fill="white" stroke="white" stroke-width="3.67962"/>
<path fill-rule="evenodd" clip-rule="evenodd" d="M400.339 372.161V395.806C400.339 397.08 399.306 398.113 398.032 398.113C396.757 398.113 395.725 397.08 395.725 395.806V371.392C395.725 369.268 397.446 367.547 399.57 367.547H409.82C411.944 367.547 413.665 369.268 413.665 371.392V381.389C413.665 382.663 412.632 383.696 411.358 383.696C410.084 383.696 409.051 382.663 409.051 381.389V372.161H400.339Z" fill="white" stroke="white" stroke-width="4.61403" stroke-linecap="round"/>
<path fill-rule="evenodd" clip-rule="evenodd" d="M428.393 372.161V395.806H423.779V371.392C423.779 369.268 425.501 367.547 427.624 367.547H437.875C439.998 367.547 441.72 369.268 441.72 371.392V395.806H437.106V372.161H428.393Z" fill="white" stroke="white" stroke-width="4.61403"/>
<path d="M381.415 397.855H390.49C385.404 398.248 381.415 402.498 381.415 407.667V460.847L381.415 397.855ZM454.25 407.697C454.25 402.677 450.492 398.535 445.636 397.931L454.25 397.855V407.697Z" fill="white" stroke="white" stroke-width="15.7481"/>
<path fill-rule="evenodd" clip-rule="evenodd" d="M412.63 496.912C411.011 496.912 409.699 495.435 409.699 493.612V484.16H403.838V493.612C403.838 499.08 407.774 503.512 412.63 503.512H424.074C428.93 503.512 432.866 499.079 432.866 493.612V484.16H427.005V493.612C427.005 495.435 425.692 496.912 424.074 496.912H412.63Z" fill="white" stroke="white" stroke-width="4.61403"/>
<path d="M382.513 615.161H382.875L383.159 614.937C388.13 611.024 392.042 605.772 394.912 599.218C397.786 592.655 399.215 585.46 399.215 577.647V539.572V538.528H398.172H378.147H377.104V539.572V577.939C377.104 585.717 375.576 592.309 372.569 597.757H364.588C361.599 592.59 360.068 585.957 360.068 577.793V539.572V538.528H359.025H339H337.957V539.572V578.376C337.957 586.094 339.387 593.148 342.265 599.521C345.137 605.881 349.049 611.029 354.013 614.937L354.297 615.161H354.659H382.513ZM443.406 538.528H442.363V539.572V636V637.043H443.406H463.432H464.475V636V612.132C467.586 614.173 471.478 615.161 476.079 615.161H488.877H489.284L489.584 614.885C499.877 605.411 504.977 592.369 504.977 575.896C504.977 568.199 503.754 561.118 501.295 554.664C498.839 548.22 495.447 542.926 491.1 538.814L490.798 538.528H490.383H476.832C472.876 538.528 469.76 538.918 467.571 539.766L467.563 539.769L467.554 539.773C465.836 540.474 464.043 541.598 462.177 543.116L460.475 539.16L460.204 538.528H459.517H443.406ZM514.719 538.528H513.676V539.572V636V637.043H514.719H534.744H535.787V636V612.132C538.899 614.173 542.79 615.161 547.392 615.161H560.19H560.597L560.896 614.885C571.189 605.411 576.289 592.369 576.289 575.896C576.289 568.199 575.067 561.118 572.607 554.664C570.152 548.22 566.759 542.926 562.412 538.814L562.111 538.528H561.695H548.144C544.189 538.528 541.073 538.918 538.884 539.766L538.875 539.769L538.867 539.773C537.149 540.474 535.356 541.598 533.489 543.116L531.788 539.16L531.516 538.528H530.829H514.719ZM585.139 614.118V615.161H586.182H606.207H607.251V614.118V560.163H625.329H626.372V559.12V539.572V538.528H625.329H619.457C613.514 538.528 608.507 540.887 604.482 545.514L601.427 539.122L601.144 538.528H600.486H586.182H585.139V539.572V614.118ZM676.944 615.161H677.344L677.642 614.893C687.935 605.618 693.043 592.965 693.043 577.064C693.043 568.824 692.083 561.892 690.126 556.301C688.161 550.59 684.51 544.782 679.227 538.876L678.916 538.528H678.449H643.217H642.753L642.443 538.873C637.454 544.396 633.768 550.141 631.406 556.11L631.403 556.118L631.4 556.125C629.138 562.105 628.021 569.091 628.021 577.064C628.021 592.965 633.129 605.618 643.422 614.893L643.72 615.161H644.12H676.944ZM404.712 510.957H403.669V512V531.3V532.343H404.712H432.818H433.862V531.3V512V510.957H432.818H404.712ZM482.413 576.48C482.413 584.843 480.69 591.92 477.292 597.757H464.475V555.933H477.175C480.643 561.29 482.413 568.117 482.413 576.48ZM553.726 576.48C553.726 584.843 552.002 591.92 548.605 597.757H535.787V555.933H548.487C551.955 561.29 553.726 568.117 553.726 576.48ZM670.63 575.605C670.63 583.875 668.953 591.252 665.621 597.757H655.413C652.112 591.917 650.433 584.695 650.433 576.042C650.433 567.289 652.114 560.626 655.35 555.933H665.561C668.908 560.811 670.63 567.337 670.63 575.605Z" fill="white" fill-opacity="0.972549" stroke="white" stroke-width="2.08655"/>
<mask id="mask0_4_5270" style="mask-type:luminance" maskUnits="userSpaceOnUse" x="161" y="233" width="93" height="345">
<path d="M161.344 233.867H253.545V577.035H161.344V233.867Z" fill="white"/>
</mask>
<g mask="url(#mask0_4_5270)">
<path d="M223.012 235.978L223.247 235.943L223.463 235.843C223.879 235.65 224.119 235.586 224.321 235.555C224.562 235.517 224.818 235.514 225.368 235.514H225.371H225.374H225.377H225.38H225.383H225.386H225.389H225.392H225.395H225.399H225.402H225.405H225.408H225.411H225.414H225.417H225.42H225.423H225.426H225.429H225.432H225.435H225.438H225.441H225.444H225.447H225.45H225.453H225.456H225.459H225.462H225.465H225.468H225.471H225.475H225.478H225.481H225.484H225.487H225.49H225.493H225.496H225.499H225.502H225.505H225.508H225.511H225.514H225.517H225.52H225.523H225.526H225.529H225.532H225.535H225.538H225.541H225.544H225.547H225.55H225.553H225.556H225.559H225.562H225.565H225.568H225.571H225.574H225.577H225.58H225.583H225.586H225.589H225.592H225.595H225.598H225.601H225.604H225.607H225.61H225.613H225.616H225.619H225.622H225.625H225.628H225.631H225.633H225.636H225.639H225.642H225.645H225.648H225.651H225.654H225.657H225.66H225.663H225.666H225.669H225.672H225.675H225.678H225.68H225.683H225.686H225.689H225.692H225.695H225.698H225.701H225.704H225.707H225.71H225.712H225.715H225.718H225.721H225.724H225.727H225.73H225.733H225.736H225.738H225.741H225.744H225.747H225.75H225.753H225.756H225.758H225.761H225.764H225.767H225.77H225.773H225.775H225.778H225.781H225.784H225.787H225.789H225.792H225.795H225.798H225.801H225.804H225.806H225.809H225.812H225.815H225.817H225.82H225.823H225.826H225.829H225.831H225.834H225.837H225.84H225.842H225.845H225.848H225.851H225.853H225.856H225.859H225.861H225.864H225.867H225.87H225.872H225.875H225.878H225.88H225.883H225.886H225.888H225.891H225.894H225.896H225.899H225.902H225.904H225.907H225.91H225.912H225.915H225.918H225.92H225.923H225.925H225.928H225.931H225.933H225.936H225.938H225.941H225.944H225.946H225.949H225.951H225.954H225.957H225.959H225.962H225.964H225.967H225.969H225.972H225.974H225.977H225.979H225.982H225.984H225.987H225.989H225.992H225.994H225.997H225.999H226.002H226.004H226.007H226.009H226.012H226.014H226.017H226.019H226.021H226.024H226.026H226.029H226.031H226.034H226.036H226.038H226.041H226.043H226.046H226.048H226.05H226.053H226.055H226.057H226.06H226.062H226.064H226.067H226.069H226.071H226.074H226.076H226.078H226.081H226.083H226.085H226.087H226.09H226.092H226.094H226.096H226.099H226.101H226.103H226.105H226.108H226.11H226.112H226.114H226.116H226.119H226.121H226.123H226.125H226.127H226.129H226.132H226.134H226.136H226.138H226.14H226.142H226.144H226.146H226.149H226.151H226.153H226.155H226.157H226.159H226.161H226.163H226.165H226.167H226.169H226.171H226.173H226.175H226.177H226.179H226.181H226.183H226.185H226.187H226.189H226.191H226.193H226.195H226.197H226.199H226.201H226.203H226.205H226.206H226.208H226.21H226.212H226.214H226.216H226.218H226.22H226.221H226.223H226.225H226.227H226.229H226.23H226.232H226.234H226.236H226.238H226.239H226.241H226.243H226.245H226.246H226.248H226.25H226.251H226.253H226.255H226.257H226.258H226.26H226.262H226.263H226.265H226.266H226.268H226.27H226.271H226.273H226.274H226.276H226.278H226.279H226.281H226.282H226.284H226.285H226.287H226.288H226.29H226.291H226.293H226.294H226.296H226.297H226.299H226.3H226.302H226.303H226.305H226.306H226.307H226.309H226.31H226.312H226.313H226.314H226.316H226.317H226.318H226.32H226.321H226.322H226.324H226.325H226.326H226.327H226.329H226.33H226.331H226.332H226.334H226.335H226.336H226.337H226.339H226.34H226.341H226.342H226.343H226.344H226.345H226.347H226.348H226.349H226.35H226.351H226.352H226.353H226.354H226.355H226.356H226.357H226.358H226.359H226.36H226.361H226.362H226.363H226.364H226.365H226.366H226.367H226.368H226.369H226.37H226.371H226.372H226.373H226.373H226.374H226.375H226.376H226.377H226.378H226.378H226.379H226.38H226.381H226.381H226.382H226.383H226.384H226.384H226.385H226.386H226.386H226.387H226.388H226.388H226.389H226.39H226.39H226.391H226.392H226.392H226.393H226.393H226.394H226.394H226.395H226.396H226.396H226.397H226.397H226.398H226.398H226.398H226.399H226.399H226.4H226.4H226.401H226.401H226.401H226.402H226.402H226.402H226.403H226.403H226.403H226.404H226.404H226.404H226.405H226.405H226.405H226.405H226.406H226.406H226.406H226.406H226.406H226.407H226.407H226.407H226.407H226.407H226.407H226.407H226.407H226.408H226.408H226.408C233.167 235.514 239.603 239.96 244.368 247.646C249.116 255.304 252.041 265.962 251.787 277.753L251.786 277.771V277.789C251.786 289.59 248.733 300.258 243.918 307.924C239.085 315.617 232.647 320.064 225.888 320.064C221.691 320.064 217.884 318.337 214.44 315.596L213.99 315.237H213.415C207.426 315.237 202.675 318.417 198.979 323.069C195.301 327.698 192.547 333.916 190.473 340.394C186.322 353.367 184.752 367.876 184.229 374.184L184.081 375.967H185.87H188.901V415.63H179.114H177.468V417.276V565.774L174.524 555.922V416.794V415.147H172.878H163.09V375.484H166.641H168.287V373.838V310.127C168.287 279.424 178.9 261.429 190.921 250.85C203.002 240.217 216.688 236.918 223.012 235.978Z" fill="white" stroke="url(#paint1_linear_4_5270)" stroke-width="3.2929"/>
</g>
<defs>
<linearGradient id="paint0_linear_4_5270" x1="119.289" y1="78.7755" x2="474.904" y2="578.437" gradientUnits="userSpaceOnUse">
<stop stop-color="#FA8C14"/>
<stop offset="1" stop-color="#F95A08"/>
</linearGradient>
<linearGradient id="paint1_linear_4_5270" x1="174.412" y1="265.811" x2="275.11" y2="303.744" gradientUnits="userSpaceOnUse">
<stop stop-color="#FA8C14"/>
<stop offset="1" stop-color="#F95A08"/>
</linearGradient>
</defs>
</svg>
