<svg width="257" height="257" viewBox="0 0 257 257" fill="none" xmlns="http://www.w3.org/2000/svg">
<circle cx="128.5" cy="128.5" r="128.5" fill="url(#paint0_linear_30_358)"/>
<path d="M153.13 118.235H158.624L159.394 120.084C160.147 119.399 160.849 118.92 161.499 118.646C162.184 118.372 163.193 118.235 164.528 118.235H169.149C170.587 119.639 171.717 121.453 172.538 123.678C173.36 125.903 173.771 128.35 173.771 131.02C173.771 136.737 172.059 141.221 168.636 144.473H164.272C162.457 144.473 161.02 143.993 159.959 143.035V152.174H153.13V118.235ZM159.959 139.081H164.888C166.154 136.925 166.788 134.306 166.788 131.226C166.788 128.145 166.137 125.612 164.836 123.626H159.959V139.081ZM189.309 123.626H185.458C184.945 124.243 184.517 125.098 184.175 126.194C183.867 127.289 183.713 128.35 183.713 129.377H191.055C191.123 128.35 190.987 127.289 190.644 126.194C190.302 125.064 189.857 124.208 189.309 123.626ZM196.292 139.081V144.473H183.251C180.854 142.864 179.16 140.878 178.167 138.517C177.209 136.12 176.73 133.707 176.73 131.277C176.73 125.663 178.852 121.316 183.096 118.235H191.414C193.708 119.913 195.265 121.692 196.087 123.575C196.908 125.458 197.319 127.358 197.319 129.274C197.319 131.191 197.165 132.834 196.857 134.204H184.072C184.175 134.991 184.466 135.898 184.945 136.925C185.458 137.918 186.006 138.636 186.588 139.081H196.292ZM200.816 144.473V118.235H205.694L206.977 121.008C208.346 119.159 210.075 118.235 212.163 118.235H214.166V125.116H207.645V144.473H200.816Z" fill="white"/>
<path d="M105.526 98.5286L91.9927 96.1567C91.8147 96.1255 91.6345 96.2164 91.5404 96.3847L73.003 129.547C72.8451 129.83 72.9954 130.187 73.294 130.239L93.266 133.74C93.5021 133.781 93.6573 134.021 93.6128 134.275L89.0987 160.031C89.0133 160.518 89.5974 160.779 89.8739 160.377L114.61 124.434C114.803 124.152 114.659 123.759 114.343 123.703L96.5938 120.592C96.3101 120.543 96.1563 120.215 96.2853 119.935L105.835 99.1864C105.964 98.9063 105.81 98.5784 105.526 98.5286Z" fill="white" stroke="white" stroke-width="0.467069"/>
<path fill-rule="evenodd" clip-rule="evenodd" d="M92.2858 96.4284C92.4341 96.1771 92.7227 96.0441 93.0101 96.0945L107.576 98.6473C108.034 98.7276 108.288 99.2236 108.086 99.6422L98.0988 120.314C98.0314 120.453 98.1161 120.619 98.2688 120.645L117.372 123.993C117.883 124.083 118.123 124.678 117.816 125.097L91.7158 160.801C91.2782 161.4 90.3321 160.997 90.4601 160.266L94.9743 134.51C94.9965 134.383 94.9116 134.262 94.7845 134.239L73.2888 130.472C72.8066 130.388 72.5576 129.847 72.8064 129.426L92.2858 96.4284ZM92.9295 96.5545C92.8336 96.5377 92.7375 96.5821 92.688 96.6658L73.2086 129.663C73.1257 129.804 73.2087 129.984 73.3694 130.012L94.8652 133.779C95.2463 133.846 95.5011 134.209 95.4343 134.59L90.9202 160.347C90.8775 160.591 91.1929 160.725 91.3387 160.525L117.439 124.821C117.541 124.682 117.462 124.483 117.291 124.453L98.1881 121.105C97.7301 121.025 97.476 120.529 97.6782 120.111L107.666 99.439C107.733 99.2995 107.648 99.1342 107.496 99.1074L92.9295 96.5545Z" fill="white" stroke="white" stroke-width="0.467069"/>
<path d="M80.7894 57.6781H112.993V63.0325C112.993 64.4468 111.846 65.5933 110.432 65.5933H83.3502C81.936 65.5933 80.7894 64.4468 80.7894 63.0325V57.6781Z" fill="white" stroke="white" stroke-width="0.4656"/>
<mask id="path-6-inside-1_30_358" fill="white">
<path fill-rule="evenodd" clip-rule="evenodd" d="M73.4061 58.5638H119.221C125.393 58.5638 130.396 63.5667 130.396 69.7382V98.5226H135.983V69.7382C135.983 60.481 128.478 52.9766 119.221 52.9766H73.4061C64.149 52.9766 56.6445 60.481 56.6445 69.7382V187.069C56.6445 196.327 64.149 203.831 73.4061 203.831H119.221C128.478 203.831 135.983 196.327 135.983 187.069V151.415H130.396V187.069C130.396 193.241 125.393 198.244 119.221 198.244H73.4061C67.2347 198.244 62.2317 193.241 62.2317 187.069V69.7382C62.2317 63.5667 67.2347 58.5638 73.4061 58.5638Z"/>
</mask>
<path fill-rule="evenodd" clip-rule="evenodd" d="M73.4061 58.5638H119.221C125.393 58.5638 130.396 63.5667 130.396 69.7382V98.5226H135.983V69.7382C135.983 60.481 128.478 52.9766 119.221 52.9766H73.4061C64.149 52.9766 56.6445 60.481 56.6445 69.7382V187.069C56.6445 196.327 64.149 203.831 73.4061 203.831H119.221C128.478 203.831 135.983 196.327 135.983 187.069V151.415H130.396V187.069C130.396 193.241 125.393 198.244 119.221 198.244H73.4061C67.2347 198.244 62.2317 193.241 62.2317 187.069V69.7382C62.2317 63.5667 67.2347 58.5638 73.4061 58.5638Z" fill="white"/>
<path d="M133.189 98.5226V151.415H138.776V98.5226H133.189ZM127.602 98.5226V151.415H133.189V98.5226H127.602ZM130.396 98.5226H124.808V104.11H130.396V98.5226ZM135.983 98.5226V104.11H141.57V98.5226H135.983ZM135.983 151.415H141.57V145.828H135.983V151.415ZM130.396 151.415V145.828H124.808V151.415H130.396ZM73.4061 64.151H119.221V52.9766H73.4061V64.151ZM67.8189 69.7382C67.8189 66.6525 70.3204 64.151 73.4061 64.151V52.9766C64.149 52.9766 56.6445 60.481 56.6445 69.7382H67.8189ZM67.8189 187.069V69.7382H56.6445V187.069H67.8189ZM73.4061 192.657C70.3204 192.657 67.8189 190.155 67.8189 187.069H56.6445C56.6445 196.327 64.149 203.831 73.4061 203.831V192.657ZM119.221 192.657H73.4061V203.831H119.221V192.657ZM124.808 187.069C124.808 190.155 122.307 192.657 119.221 192.657V203.831C128.478 203.831 135.983 196.327 135.983 187.069H124.808ZM119.221 64.151C122.307 64.151 124.808 66.6524 124.808 69.7382H135.983C135.983 60.481 128.478 52.9766 119.221 52.9766V64.151ZM62.2317 69.7382C62.2317 63.5667 67.2347 58.5638 73.4061 58.5638V47.3894C61.0632 47.3894 51.0573 57.3953 51.0573 69.7382H62.2317ZM62.2317 187.069V69.7382H51.0573V187.069H62.2317ZM73.4061 198.244C67.2347 198.244 62.2317 193.241 62.2317 187.069H51.0573C51.0573 199.412 61.0632 209.418 73.4061 209.418V198.244ZM119.221 198.244H73.4061V209.418H119.221V198.244ZM130.396 187.069C130.396 193.241 125.393 198.244 119.221 198.244V209.418C131.564 209.418 141.57 199.412 141.57 187.069H130.396ZM119.221 58.5638C125.393 58.5638 130.396 63.5667 130.396 69.7382H141.57C141.57 57.3953 131.564 47.3894 119.221 47.3894V58.5638ZM73.4061 58.5638H119.221V47.3894H73.4061V58.5638ZM124.808 69.7382V98.5226H135.983V69.7382H124.808ZM130.396 69.7382V98.5226H141.57V69.7382H130.396ZM130.396 104.11H135.983V92.9354H130.396V104.11ZM130.396 151.415V187.069H141.57V151.415H130.396ZM124.808 151.415V187.069H135.983V151.415H124.808ZM135.983 145.828H130.396V157.002H135.983V145.828Z" fill="white" mask="url(#path-6-inside-1_30_358)"/>
<mask id="path-8-inside-2_30_358" fill="white">
<path d="M82.8711 193.774C82.8711 193.157 83.3714 192.656 83.9885 192.656H108.635C109.252 192.656 109.753 193.157 109.753 193.774L-nan -nanL-nan -nanL109.753 193.774C109.753 194.391 109.252 194.891 108.635 194.891H83.9885C83.3714 194.891 82.8711 194.391 82.8711 193.774L-nan -nanL82.8711 193.774Z"/>
</mask>
<path d="M82.8711 193.774C82.8711 193.157 83.3714 192.656 83.9885 192.656H108.635C109.252 192.656 109.753 193.157 109.753 193.774L-nan -nanL-nan -nanL109.753 193.774C109.753 194.391 109.252 194.891 108.635 194.891H83.9885C83.3714 194.891 82.8711 194.391 82.8711 193.774L-nan -nanL82.8711 193.774Z" fill="white"/>
<path d="M83.9885 193.774H108.635V191.539H83.9885V193.774ZM108.635 193.774H83.9885V196.009H108.635V193.774ZM83.9885 193.774L83.9885 193.774H81.7537C81.7537 195.008 82.7542 196.009 83.9885 196.009V193.774ZM108.635 193.774L108.635 193.774V196.009C109.87 196.009 110.87 195.008 110.87 193.774H108.635ZM108.635 193.774L108.635 193.774H110.87C110.87 192.539 109.87 191.539 108.635 191.539V193.774ZM83.9885 191.539C82.7542 191.539 81.7537 192.539 81.7537 193.774H83.9885L83.9885 193.774V191.539Z" fill="white" mask="url(#path-8-inside-2_30_358)"/>
<path d="M83.4298 193.774C83.4298 193.465 83.68 193.215 83.9885 193.215H108.635C108.944 193.215 109.194 193.465 109.194 193.774C109.194 194.082 108.944 194.332 108.635 194.332H83.9885C83.68 194.332 83.4298 194.082 83.4298 193.774Z" fill="white" stroke="white" stroke-width="1.11744"/>
<path fill-rule="evenodd" clip-rule="evenodd" d="M127.573 112.995V120.176C127.573 120.562 127.259 120.876 126.872 120.876C126.486 120.876 126.172 120.562 126.172 120.176V112.761C126.172 112.117 126.695 111.594 127.34 111.594H130.452C131.097 111.594 131.62 112.117 131.62 112.761V115.797C131.62 116.184 131.306 116.498 130.92 116.498C130.533 116.498 130.219 116.184 130.219 115.797V112.995H127.573Z" fill="white" stroke="white" stroke-width="1.40121" stroke-linecap="round"/>
<path fill-rule="evenodd" clip-rule="evenodd" d="M136.093 112.995V120.176H134.691V112.761C134.691 112.117 135.214 111.594 135.859 111.594H138.972C139.617 111.594 140.14 112.117 140.14 112.761V120.176H138.738V112.995H136.093Z" fill="white" stroke="white" stroke-width="1.40121"/>
<path d="M143.946 123.786C143.946 122.262 142.804 121.004 141.33 120.821L143.946 120.798V123.786ZM121.827 120.797H124.583C123.038 120.917 121.827 122.207 121.827 123.777V139.927L121.827 120.797Z" fill="white" stroke="white" stroke-width="4.78244"/>
<path fill-rule="evenodd" clip-rule="evenodd" d="M131.307 150.879C130.815 150.879 130.417 150.43 130.417 149.876V147.006H128.637V149.876C128.637 151.537 129.832 152.883 131.307 152.883H134.782C136.257 152.883 137.452 151.537 137.452 149.876V147.006H135.672V149.876C135.672 150.43 135.274 150.879 134.782 150.879H131.307Z" fill="white" stroke="white" stroke-width="1.40121"/>
<path d="M123.686 183.305H116.205C114.911 182.254 113.887 180.866 113.132 179.141C112.377 177.415 112 175.501 112 173.399V162.642H117.378V173.237C117.378 175.609 117.823 177.55 118.712 179.06H121.179C122.069 177.469 122.513 175.542 122.513 173.277V162.642H127.892V173.196C127.892 175.326 127.514 177.28 126.759 179.06C126.004 180.839 124.98 182.254 123.686 183.305Z" fill="white"/>
<path d="M140.04 162.642H144.367L144.973 164.098C145.566 163.559 146.119 163.182 146.631 162.966C147.17 162.75 147.965 162.642 149.017 162.642H152.656C153.788 163.748 154.678 165.176 155.325 166.929C155.972 168.681 156.295 170.608 156.295 172.711C156.295 177.213 154.947 180.745 152.252 183.305H148.815C147.386 183.305 146.254 182.928 145.418 182.173V189.371H140.04V162.642ZM145.418 179.06H149.3C150.297 177.361 150.796 175.299 150.796 172.873C150.796 170.447 150.284 168.452 149.259 166.888H145.418V179.06Z" fill="white"/>
<path d="M159.192 162.642H163.519L164.125 164.098C164.718 163.559 165.271 163.182 165.783 162.966C166.322 162.75 167.117 162.642 168.169 162.642H171.808C172.94 163.748 173.83 165.176 174.477 166.929C175.124 168.681 175.447 170.608 175.447 172.711C175.447 177.213 174.099 180.745 171.404 183.305H167.967C166.538 183.305 165.406 182.928 164.57 182.173V189.371H159.192V162.642ZM164.57 179.06H168.452C169.449 177.361 169.948 175.299 169.948 172.873C169.948 170.447 169.436 168.452 168.411 166.888H164.57V179.06Z" fill="white"/>
<path d="M178.384 183.305V162.642H182.226L183.237 164.826C184.315 163.37 185.676 162.642 187.321 162.642H188.898V168.061H183.762V183.305H178.384Z" fill="white"/>
<path d="M202.76 183.305H193.944C191.249 180.798 189.901 177.375 189.901 173.035C189.901 170.851 190.197 168.951 190.79 167.333C191.41 165.716 192.381 164.152 193.702 162.642H203.164C204.566 164.26 205.523 165.837 206.035 167.374C206.547 168.883 206.803 170.77 206.803 173.035C206.803 177.375 205.455 180.798 202.76 183.305ZM196.815 179.06H199.889C200.859 177.173 201.344 175.03 201.344 172.63C201.344 170.231 200.846 168.317 199.848 166.888H196.815C195.845 168.263 195.36 170.218 195.36 172.752C195.36 175.259 195.845 177.361 196.815 179.06Z" fill="white"/>
<path d="M129 155H137.196V160.35H129V155Z" fill="white"/>
<defs>
<linearGradient id="paint0_linear_30_358" x1="36.2261" y1="23.9229" x2="144.221" y2="175.662" gradientUnits="userSpaceOnUse">
<stop stop-color="#FA8C14"/>
<stop offset="1" stop-color="#F95A08"/>
</linearGradient>
</defs>
</svg>
