<svg width="89" height="141" viewBox="0 0 89 141" fill="none" xmlns="http://www.w3.org/2000/svg">
<path fill-rule="evenodd" clip-rule="evenodd" d="M27.0906 7.08669V30.7315C27.0906 32.0056 26.0577 33.0385 24.7836 33.0385C23.5094 33.0385 22.4766 32.0056 22.4766 30.7315V6.31768C22.4766 4.19413 24.198 2.47266 26.3216 2.47266H36.5722C38.6957 2.47266 40.4172 4.19413 40.4172 6.31768V16.3148C40.4172 17.5889 39.3843 18.6218 38.1102 18.6218C36.8361 18.6218 35.8032 17.5889 35.8032 16.3148V7.08669H27.0906Z" fill="white" stroke="white" stroke-width="4.61403" stroke-linecap="round"/>
<path fill-rule="evenodd" clip-rule="evenodd" d="M55.1453 7.08669V30.7315H50.5312V6.31769C50.5312 4.19414 52.2527 2.47266 54.3763 2.47266H64.6269C66.7504 2.47266 68.4719 4.19413 68.4719 6.31768V30.7315H63.8579V7.08669H55.1453Z" fill="white" stroke="white" stroke-width="4.61403"/>
<path d="M71.1593 32.7803L55.1985 32.7803L81.0018 32.7803V42.6228C81.0018 37.1869 76.5952 32.7803 71.1593 32.7803ZM8.16701 32.7803H17.2417C12.156 33.1736 8.16701 37.4234 8.16701 42.5932V95.7726L8.16701 32.7803Z" fill="white" stroke="white" stroke-width="15.7481"/>
<path fill-rule="evenodd" clip-rule="evenodd" d="M39.382 131.838C37.7634 131.838 36.4513 130.36 36.4513 128.538V119.085H30.5898V128.538C30.5898 134.005 34.5262 138.438 39.382 138.438H50.8258C55.6816 138.438 59.6179 134.005 59.6179 128.538V119.085H53.7565V128.538C53.7565 130.36 52.4444 131.838 50.8258 131.838H39.382Z" fill="white" stroke="white" stroke-width="4.61403"/>
</svg>
