<svg width="3170" height="3012" viewBox="0 0 3170 3012" fill="none" xmlns="http://www.w3.org/2000/svg">
<rect width="3170" height="3012" fill="#1E1E1E"/>
<circle cx="1586.26" cy="991.137" r="423.137" fill="url(#paint0_linear_4_4993)"/>
<path d="M1667.36 954.943H1685.45L1687.99 961.029C1690.47 958.775 1692.78 957.197 1694.92 956.295C1697.18 955.394 1700.5 954.943 1704.9 954.943H1720.12C1724.85 959.564 1728.57 965.538 1731.27 972.865C1733.98 980.191 1735.33 988.25 1735.33 997.042C1735.33 1015.87 1729.7 1030.63 1718.42 1041.34H1704.05C1698.08 1041.34 1693.35 1039.76 1689.85 1036.61V1066.7H1667.36V954.943ZM1689.85 1023.59H1706.08C1710.25 1016.49 1712.34 1007.86 1712.34 997.719C1712.34 987.574 1710.2 979.233 1705.91 972.696H1689.85V1023.59ZM1786.5 972.696H1773.82C1772.13 974.724 1770.72 977.542 1769.59 981.149C1768.58 984.756 1768.07 988.25 1768.07 991.632H1792.25C1792.47 988.25 1792.02 984.756 1790.9 981.149C1789.77 977.43 1788.3 974.612 1786.5 972.696ZM1809.49 1023.59V1041.34H1766.55C1758.66 1036.04 1753.08 1029.5 1749.81 1021.73C1746.65 1013.84 1745.08 1005.89 1745.08 997.888C1745.08 979.402 1752.06 965.087 1766.04 954.943H1793.43C1800.98 960.466 1806.11 966.327 1808.82 972.527C1811.52 978.726 1812.88 984.982 1812.88 991.294C1812.88 997.606 1812.37 1003.02 1811.35 1007.52H1769.25C1769.59 1010.12 1770.55 1013.1 1772.13 1016.49C1773.82 1019.75 1775.62 1022.12 1777.54 1023.59H1809.49ZM1824.39 1041.34V954.943H1840.45L1844.68 964.073C1849.19 957.986 1854.88 954.943 1861.75 954.943H1868.35V977.599H1846.88V1041.34H1824.39Z" fill="white"/>
<path d="M1510.61 892.448L1466.05 884.638C1465.46 884.535 1464.87 884.834 1464.56 885.388L1403.51 994.589C1402.99 995.519 1403.49 996.696 1404.47 996.868L1470.24 1008.39C1471.02 1008.53 1471.53 1009.32 1471.38 1010.16L1456.52 1094.97C1456.23 1096.57 1458.16 1097.43 1459.07 1096.11L1540.52 977.75C1541.16 976.825 1540.68 975.528 1539.64 975.345L1481.2 965.102C1480.26 964.938 1479.76 963.858 1480.18 962.936L1511.63 894.614C1512.05 893.692 1511.54 892.612 1510.61 892.448Z" fill="white" stroke="white" stroke-width="1.53801"/>
<path fill-rule="evenodd" clip-rule="evenodd" d="M1467.01 885.538C1467.5 884.711 1468.45 884.273 1469.4 884.438L1517.36 892.845C1518.87 893.109 1519.71 894.742 1519.04 896.121L1486.15 964.19C1485.93 964.65 1486.21 965.194 1486.71 965.282L1549.62 976.307C1551.3 976.602 1552.09 978.561 1551.08 979.94L1465.13 1097.51C1463.69 1099.48 1460.58 1098.16 1461 1095.75L1475.86 1010.94C1475.94 1010.52 1475.66 1010.12 1475.24 1010.05L1404.46 997.64C1402.87 997.362 1402.05 995.583 1402.87 994.195L1467.01 885.538ZM1469.13 885.953C1468.82 885.898 1468.5 886.044 1468.34 886.32L1404.19 994.977C1403.92 995.44 1404.19 996.033 1404.72 996.125L1475.5 1008.53C1476.76 1008.75 1477.6 1009.95 1477.38 1011.2L1462.51 1096.02C1462.37 1096.82 1463.41 1097.26 1463.89 1096.6L1549.84 979.033C1550.18 978.573 1549.91 977.92 1549.35 977.822L1486.45 966.797C1484.94 966.533 1484.1 964.9 1484.77 963.521L1517.66 895.452C1517.88 894.992 1517.6 894.448 1517.1 894.36L1469.13 885.953Z" fill="white" stroke="white" stroke-width="1.53801"/>
<path d="M1429.16 757.935H1535.2V775.566C1535.2 780.223 1531.43 783.999 1526.77 783.999H1437.6C1432.94 783.999 1429.16 780.223 1429.16 775.566V757.935Z" fill="white" stroke="white" stroke-width="1.53317"/>
<mask id="path-6-inside-1_4_4993" fill="white">
<path fill-rule="evenodd" clip-rule="evenodd" d="M1404.85 760.847H1555.71C1576.04 760.847 1592.51 777.322 1592.51 797.643V892.428H1610.91V797.643C1610.91 767.161 1586.2 742.449 1555.71 742.449H1404.85C1374.37 742.449 1349.66 767.161 1349.66 797.643V1184C1349.66 1214.49 1374.37 1239.2 1404.85 1239.2H1555.71C1586.2 1239.2 1610.91 1214.49 1610.91 1184V1066.6H1592.51V1184C1592.51 1204.33 1576.04 1220.8 1555.71 1220.8H1404.85C1384.53 1220.8 1368.05 1204.33 1368.05 1184V797.643C1368.05 777.322 1384.53 760.847 1404.85 760.847Z"/>
</mask>
<path fill-rule="evenodd" clip-rule="evenodd" d="M1404.85 760.847H1555.71C1576.04 760.847 1592.51 777.322 1592.51 797.643V892.428H1610.91V797.643C1610.91 767.161 1586.2 742.449 1555.71 742.449H1404.85C1374.37 742.449 1349.66 767.161 1349.66 797.643V1184C1349.66 1214.49 1374.37 1239.2 1404.85 1239.2H1555.71C1586.2 1239.2 1610.91 1214.49 1610.91 1184V1066.6H1592.51V1184C1592.51 1204.33 1576.04 1220.8 1555.71 1220.8H1404.85C1384.53 1220.8 1368.05 1204.33 1368.05 1184V797.643C1368.05 777.322 1384.53 760.847 1404.85 760.847Z" fill="white"/>
<path d="M1601.71 892.428V1066.6H1620.11V892.428H1601.71ZM1583.31 892.428V1066.6H1601.71V892.428H1583.31ZM1592.51 892.428H1574.11V910.826H1592.51V892.428ZM1610.91 892.428V910.826H1629.31V892.428H1610.91ZM1610.91 1066.6H1629.31V1048.2H1610.91V1066.6ZM1592.51 1066.6V1048.2H1574.11V1066.6H1592.51ZM1404.85 779.245H1555.71V742.449H1404.85V779.245ZM1386.45 797.643C1386.45 787.482 1394.69 779.245 1404.85 779.245V742.449C1374.37 742.449 1349.66 767.161 1349.66 797.643H1386.45ZM1386.45 1184V797.643H1349.66V1184H1386.45ZM1404.85 1202.4C1394.69 1202.4 1386.45 1194.16 1386.45 1184H1349.66C1349.66 1214.49 1374.37 1239.2 1404.85 1239.2V1202.4ZM1555.71 1202.4H1404.85V1239.2H1555.71V1202.4ZM1574.11 1184C1574.11 1194.16 1565.88 1202.4 1555.71 1202.4V1239.2C1586.2 1239.2 1610.91 1214.49 1610.91 1184H1574.11ZM1555.71 779.245C1565.88 779.245 1574.11 787.482 1574.11 797.643H1610.91C1610.91 767.161 1586.2 742.449 1555.71 742.449V779.245ZM1368.05 797.643C1368.05 777.322 1384.53 760.847 1404.85 760.847V724.051C1364.21 724.051 1331.26 757 1331.26 797.643H1368.05ZM1368.05 1184V797.643H1331.26V1184H1368.05ZM1404.85 1220.8C1384.53 1220.8 1368.05 1204.33 1368.05 1184H1331.26C1331.26 1224.65 1364.21 1257.6 1404.85 1257.6V1220.8ZM1555.71 1220.8H1404.85V1257.6H1555.71V1220.8ZM1592.51 1184C1592.51 1204.33 1576.04 1220.8 1555.71 1220.8V1257.6C1596.36 1257.6 1629.31 1224.65 1629.31 1184H1592.51ZM1555.71 760.847C1576.04 760.847 1592.51 777.322 1592.51 797.643H1629.31C1629.31 757 1596.36 724.051 1555.71 724.051V760.847ZM1404.85 760.847H1555.71V724.051H1404.85V760.847ZM1574.11 797.643V892.428H1610.91V797.643H1574.11ZM1592.51 797.643V892.428H1629.31V797.643H1592.51ZM1592.51 910.826H1610.91V874.03H1592.51V910.826ZM1592.51 1066.6V1184H1629.31V1066.6H1592.51ZM1574.11 1066.6V1184H1610.91V1066.6H1574.11ZM1610.91 1048.2H1592.51V1084.99H1610.91V1048.2Z" fill="white" mask="url(#path-6-inside-1_4_4993)"/>
<mask id="path-8-inside-2_4_4993" fill="white">
<path d="M1436.02 1206.08C1436.02 1204.05 1437.66 1202.4 1439.7 1202.4H1520.85C1522.89 1202.4 1524.53 1204.05 1524.53 1206.08L-nan -nanL1524.53 1206.08C1524.53 1208.11 1522.89 1209.76 1520.85 1209.76H1439.7C1437.66 1209.76 1436.02 1208.11 1436.02 1206.08L-nan -nanL1436.02 1206.08Z"/>
</mask>
<path d="M1436.02 1206.08C1436.02 1204.05 1437.66 1202.4 1439.7 1202.4H1520.85C1522.89 1202.4 1524.53 1204.05 1524.53 1206.08L-nan -nanL1524.53 1206.08C1524.53 1208.11 1522.89 1209.76 1520.85 1209.76H1439.7C1437.66 1209.76 1436.02 1208.11 1436.02 1206.08L-nan -nanL1436.02 1206.08Z" fill="white"/>
<path d="M1439.7 1206.08H1520.85V1198.72H1439.7V1206.08ZM1520.85 1206.08H1439.7V1213.44H1520.85V1206.08ZM1439.7 1206.08L1439.7 1206.08H1432.34C1432.34 1210.15 1435.63 1213.44 1439.7 1213.44V1206.08ZM1520.85 1206.08V1206.08V1213.44C1524.92 1213.44 1528.21 1210.15 1528.21 1206.08H1520.85ZM1520.85 1206.08V1206.08H1528.21C1528.21 1202.02 1524.92 1198.72 1520.85 1198.72V1206.08ZM1439.7 1198.72C1435.63 1198.72 1432.34 1202.02 1432.34 1206.08H1439.7L1439.7 1206.08V1198.72Z" fill="white" mask="url(#path-8-inside-2_4_4993)"/>
<path d="M1437.86 1206.08C1437.86 1205.07 1438.68 1204.24 1439.7 1204.24H1520.85C1521.87 1204.24 1522.69 1205.07 1522.69 1206.08C1522.69 1207.1 1521.87 1207.92 1520.85 1207.92H1439.7C1438.68 1207.92 1437.86 1207.1 1437.86 1206.08Z" fill="white" stroke="white" stroke-width="3.67962"/>
<path fill-rule="evenodd" clip-rule="evenodd" d="M1583.21 940.087V963.731C1583.21 965.006 1582.18 966.039 1580.91 966.039C1579.63 966.039 1578.6 965.006 1578.6 963.731V939.318C1578.6 937.194 1580.32 935.473 1582.44 935.473H1592.7C1594.82 935.473 1596.54 937.194 1596.54 939.318V949.315C1596.54 950.589 1595.51 951.622 1594.23 951.622C1592.96 951.622 1591.93 950.589 1591.93 949.315V940.087H1583.21Z" fill="white" stroke="white" stroke-width="4.61403" stroke-linecap="round"/>
<path fill-rule="evenodd" clip-rule="evenodd" d="M1611.27 940.087V963.731H1606.65V939.318C1606.65 937.194 1608.38 935.473 1610.5 935.473H1620.75C1622.87 935.473 1624.59 937.194 1624.59 939.318V963.731H1619.98V940.087H1611.27Z" fill="white" stroke="white" stroke-width="4.61403"/>
<path d="M1564.29 965.78H1573.36C1568.28 966.174 1564.29 970.423 1564.29 975.593V1028.77L1564.29 965.78ZM1637.12 975.623C1637.12 970.603 1633.37 966.461 1628.51 965.856L1637.12 965.781V975.623Z" fill="white" stroke="white" stroke-width="15.7481"/>
<path fill-rule="evenodd" clip-rule="evenodd" d="M1595.51 1064.84C1593.89 1064.84 1592.57 1063.36 1592.57 1061.54V1052.09H1586.71V1061.54C1586.71 1067.01 1590.65 1071.44 1595.51 1071.44H1606.95C1611.8 1071.44 1615.74 1067.01 1615.74 1061.54V1052.09H1609.88V1061.54C1609.88 1063.36 1608.57 1064.84 1606.95 1064.84H1595.51Z" fill="white" stroke="white" stroke-width="4.61403"/>
<path d="M1565.51 1183.16H1565.87L1566.16 1182.94C1571.13 1179.02 1575.04 1173.77 1577.91 1167.22C1580.79 1160.66 1582.22 1153.46 1582.22 1145.65V1107.57V1106.53H1581.17H1561.15H1560.1V1107.57V1145.94C1560.1 1153.72 1558.58 1160.31 1555.57 1165.76H1547.59C1544.6 1160.59 1543.07 1153.96 1543.07 1145.79V1107.57V1106.53H1542.03H1522H1520.96V1107.57V1146.38C1520.96 1154.09 1522.39 1161.15 1525.26 1167.52C1528.14 1173.88 1532.05 1179.03 1537.01 1182.94L1537.3 1183.16H1537.66H1565.51ZM1626.41 1106.53H1625.36V1107.57V1204V1205.04H1626.41H1646.43H1647.47V1204V1180.13C1650.59 1182.17 1654.48 1183.16 1659.08 1183.16H1671.88H1672.28L1672.58 1182.89C1682.88 1173.41 1687.98 1160.37 1687.98 1143.9C1687.98 1136.2 1686.75 1129.12 1684.29 1122.66C1681.84 1116.22 1678.45 1110.93 1674.1 1106.81L1673.8 1106.53H1673.38H1659.83C1655.88 1106.53 1652.76 1106.92 1650.57 1107.77L1650.56 1107.77L1650.55 1107.77C1648.84 1108.47 1647.04 1109.6 1645.18 1111.12L1643.48 1107.16L1643.2 1106.53H1642.52H1626.41ZM1697.72 1106.53H1696.68V1107.57V1204V1205.04H1697.72H1717.74H1718.79V1204V1180.13C1721.9 1182.17 1725.79 1183.16 1730.39 1183.16H1743.19H1743.6L1743.9 1182.89C1754.19 1173.41 1759.29 1160.37 1759.29 1143.9C1759.29 1136.2 1758.07 1129.12 1755.61 1122.66C1753.15 1116.22 1749.76 1110.93 1745.41 1106.81L1745.11 1106.53H1744.7H1731.14C1727.19 1106.53 1724.07 1106.92 1721.88 1107.77L1721.88 1107.77L1721.87 1107.77C1720.15 1108.47 1718.36 1109.6 1716.49 1111.12L1714.79 1107.16L1714.52 1106.53H1713.83H1697.72ZM1768.14 1182.12V1183.16H1769.18H1789.21H1790.25V1182.12V1128.16H1808.33H1809.37V1127.12V1107.57V1106.53H1808.33H1802.46C1796.51 1106.53 1791.51 1108.89 1787.48 1113.51L1784.43 1107.12L1784.14 1106.53H1783.49H1769.18H1768.14V1107.57V1182.12ZM1859.94 1183.16H1860.34L1860.64 1182.89C1870.93 1173.62 1876.04 1160.97 1876.04 1145.06C1876.04 1136.82 1875.08 1129.89 1873.13 1124.3C1871.16 1118.59 1867.51 1112.78 1862.23 1106.88L1861.92 1106.53H1861.45H1826.22H1825.75L1825.44 1106.87C1820.45 1112.4 1816.77 1118.14 1814.41 1124.11L1814.4 1124.12L1814.4 1124.12C1812.14 1130.1 1811.02 1137.09 1811.02 1145.06C1811.02 1160.97 1816.13 1173.62 1826.42 1182.89L1826.72 1183.16H1827.12H1859.94ZM1587.71 1078.96H1586.67V1080V1099.3V1100.34H1587.71H1615.82H1616.86V1099.3V1080V1078.96H1615.82H1587.71ZM1665.41 1144.48C1665.41 1152.84 1663.69 1159.92 1660.29 1165.76H1647.47V1123.93H1660.17C1663.64 1129.29 1665.41 1136.12 1665.41 1144.48ZM1736.73 1144.48C1736.73 1152.84 1735 1159.92 1731.6 1165.76H1718.79V1123.93H1731.49C1734.96 1129.29 1736.73 1136.12 1736.73 1144.48ZM1853.63 1143.6C1853.63 1151.88 1851.95 1159.25 1848.62 1165.76H1838.41C1835.11 1159.92 1833.43 1152.7 1833.43 1144.04C1833.43 1135.29 1835.11 1128.63 1838.35 1123.93H1848.56C1851.91 1128.81 1853.63 1135.34 1853.63 1143.6Z" fill="white" fill-opacity="0.972549" stroke="white" stroke-width="2.08655"/>
<circle cx="558.137" cy="991.137" r="423.137" fill="url(#paint1_linear_4_4993)"/>
<path d="M619.489 955.017H637.58L640.116 961.104C642.596 958.849 644.906 957.271 647.048 956.37C649.302 955.468 652.628 955.017 657.023 955.017H672.24C676.974 959.638 680.694 965.612 683.399 972.939C686.104 980.265 687.457 988.325 687.457 997.117C687.457 1015.94 681.821 1030.71 670.549 1041.41H656.178C650.204 1041.41 645.47 1039.84 641.976 1036.68V1066.78H619.489V955.017ZM641.976 1023.66H658.207C662.378 1016.56 664.463 1007.94 664.463 997.793C664.463 987.648 662.321 979.307 658.038 972.77H641.976V1023.66ZM738.624 972.77H725.944C724.253 974.799 722.844 977.617 721.717 981.224C720.702 984.83 720.195 988.325 720.195 991.706H744.373C744.598 988.325 744.147 984.83 743.02 981.224C741.893 977.504 740.428 974.686 738.624 972.77ZM761.619 1023.66V1041.41H718.674C710.783 1036.12 705.204 1029.58 701.935 1021.8C698.779 1013.91 697.201 1005.96 697.201 997.962C697.201 979.476 704.19 965.161 718.166 955.017H745.556C753.108 960.54 758.237 966.401 760.942 972.601C763.647 978.8 765 985.056 765 991.368C765 997.68 764.493 1003.09 763.478 1007.6H721.379C721.717 1010.19 722.675 1013.18 724.253 1016.56C725.944 1019.83 727.747 1022.2 729.663 1023.66H761.619ZM776.514 1041.41V955.017H792.576L796.803 964.147C801.312 958.06 807.004 955.017 813.88 955.017H820.474V977.673H799.001V1041.41H776.514Z" fill="white"/>
<path d="M462.739 892.522L418.175 884.712C417.589 884.609 416.995 884.908 416.685 885.463L355.643 994.663C355.124 995.593 355.618 996.77 356.602 996.942L422.367 1008.47C423.145 1008.6 423.656 1009.39 423.509 1010.23L408.645 1095.04C408.364 1096.65 410.287 1097.5 411.198 1096.18L492.65 977.825C493.288 976.899 492.813 975.602 491.771 975.419L433.326 965.176C432.391 965.012 431.885 963.932 432.31 963.01L463.755 894.688C464.18 893.766 463.673 892.686 462.739 892.522Z" fill="white" stroke="white" stroke-width="1.53801"/>
<path fill-rule="evenodd" clip-rule="evenodd" d="M419.14 885.608C419.628 884.781 420.579 884.343 421.525 884.509L469.49 892.915C470.998 893.179 471.835 894.813 471.169 896.191L438.282 964.26C438.06 964.72 438.339 965.264 438.841 965.352L501.745 976.377C503.429 976.672 504.218 978.631 503.21 980.011L417.263 1097.58C415.822 1099.55 412.707 1098.23 413.128 1095.82L427.993 1011.01C428.066 1010.59 427.786 1010.19 427.368 1010.12L356.585 997.711C354.997 997.432 354.177 995.653 354.996 994.265L419.14 885.608ZM421.259 886.024C420.944 885.968 420.627 886.114 420.464 886.39L356.321 995.047C356.048 995.51 356.321 996.103 356.85 996.196L427.634 1008.6C428.889 1008.82 429.728 1010.02 429.508 1011.27L414.643 1096.09C414.503 1096.89 415.541 1097.33 416.021 1096.67L501.968 979.103C502.304 978.643 502.041 977.99 501.48 977.892L438.576 966.867C437.068 966.603 436.231 964.97 436.897 963.591L469.784 895.522C470.006 895.063 469.727 894.518 469.224 894.43L421.259 886.024Z" fill="white" stroke="white" stroke-width="1.53801"/>
<path d="M381.29 758.013H487.332V775.644C487.332 780.301 483.556 784.077 478.899 784.077H389.722C385.065 784.077 381.29 780.301 381.29 775.644V758.013Z" fill="white" stroke="white" stroke-width="1.53317"/>
<mask id="path-21-inside-3_4_4993" fill="white">
<path fill-rule="evenodd" clip-rule="evenodd" d="M356.977 760.925H507.842C528.164 760.925 544.638 777.4 544.638 797.722V892.506H563.036V797.722C563.036 767.239 538.325 742.527 507.842 742.527H356.977C326.495 742.527 301.783 767.239 301.783 797.722V1184.08C301.783 1214.56 326.495 1239.28 356.977 1239.28H507.842C538.325 1239.28 563.036 1214.56 563.036 1184.08V1066.67H544.638V1184.08C544.638 1204.4 528.164 1220.88 507.842 1220.88H356.977C336.655 1220.88 320.181 1204.4 320.181 1184.08V797.722C320.181 777.4 336.656 760.925 356.977 760.925Z"/>
</mask>
<path fill-rule="evenodd" clip-rule="evenodd" d="M356.977 760.925H507.842C528.164 760.925 544.638 777.4 544.638 797.722V892.506H563.036V797.722C563.036 767.239 538.325 742.527 507.842 742.527H356.977C326.495 742.527 301.783 767.239 301.783 797.722V1184.08C301.783 1214.56 326.495 1239.28 356.977 1239.28H507.842C538.325 1239.28 563.036 1214.56 563.036 1184.08V1066.67H544.638V1184.08C544.638 1204.4 528.164 1220.88 507.842 1220.88H356.977C336.655 1220.88 320.181 1204.4 320.181 1184.08V797.722C320.181 777.4 336.656 760.925 356.977 760.925Z" fill="white"/>
<path d="M553.837 892.506V1066.67H572.235V892.506H553.837ZM535.439 892.506V1066.67H553.837V892.506H535.439ZM544.638 892.506H526.24V910.904H544.638V892.506ZM563.036 892.506V910.904H581.434V892.506H563.036ZM563.036 1066.67H581.434V1048.28H563.036V1066.67ZM544.638 1066.67V1048.28H526.24V1066.67H544.638ZM356.977 779.324H507.842V742.527H356.977V779.324ZM338.579 797.722C338.579 787.561 346.816 779.324 356.977 779.324V742.527C326.495 742.527 301.783 767.239 301.783 797.722H338.579ZM338.579 1184.08V797.722H301.783V1184.08H338.579ZM356.977 1202.48C346.816 1202.48 338.579 1194.24 338.579 1184.08H301.783C301.783 1214.56 326.494 1239.28 356.977 1239.28V1202.48ZM507.842 1202.48H356.977V1239.28H507.842V1202.48ZM526.24 1184.08C526.24 1194.24 518.003 1202.48 507.842 1202.48V1239.28C538.325 1239.28 563.036 1214.56 563.036 1184.08H526.24ZM507.842 779.324C518.003 779.324 526.24 787.561 526.24 797.722H563.036C563.036 767.239 538.325 742.527 507.842 742.527V779.324ZM320.181 797.722C320.181 777.4 336.656 760.925 356.977 760.925V724.129C316.334 724.129 283.385 757.078 283.385 797.722H320.181ZM320.181 1184.08V797.722H283.385V1184.08H320.181ZM356.977 1220.88C336.655 1220.88 320.181 1204.4 320.181 1184.08H283.385C283.385 1224.73 316.334 1257.67 356.977 1257.67V1220.88ZM507.842 1220.88H356.977V1257.67H507.842V1220.88ZM544.638 1184.08C544.638 1204.4 528.164 1220.88 507.842 1220.88V1257.67C548.486 1257.67 581.434 1224.73 581.434 1184.08H544.638ZM507.842 760.925C528.164 760.925 544.638 777.4 544.638 797.722H581.434C581.434 757.078 548.486 724.129 507.842 724.129V760.925ZM356.977 760.925H507.842V724.129H356.977V760.925ZM526.24 797.722V892.506H563.036V797.722H526.24ZM544.638 797.722V892.506H581.434V797.722H544.638ZM544.638 910.904H563.036V874.108H544.638V910.904ZM544.638 1066.67V1184.08H581.434V1066.67H544.638ZM526.24 1066.67V1184.08H563.036V1066.67H526.24ZM563.036 1048.28H544.638V1085.07H563.036V1048.28Z" fill="white" mask="url(#path-21-inside-3_4_4993)"/>
<mask id="path-23-inside-4_4_4993" fill="white">
<path d="M388.141 1206.16C388.141 1204.12 389.788 1202.48 391.82 1202.48H472.98C475.012 1202.48 476.659 1204.12 476.659 1206.16L-nan -nanL476.659 1206.16C476.659 1208.19 475.012 1209.84 472.98 1209.84H391.82C389.788 1209.84 388.141 1208.19 388.141 1206.16L-nan -nanL388.141 1206.16Z"/>
</mask>
<path d="M388.141 1206.16C388.141 1204.12 389.788 1202.48 391.82 1202.48H472.98C475.012 1202.48 476.659 1204.12 476.659 1206.16L-nan -nanL476.659 1206.16C476.659 1208.19 475.012 1209.84 472.98 1209.84H391.82C389.788 1209.84 388.141 1208.19 388.141 1206.16L-nan -nanL388.141 1206.16Z" fill="white"/>
<path d="M391.82 1206.16H472.98V1198.8H391.82V1206.16ZM472.98 1206.16H391.82V1213.52H472.98V1206.16ZM391.82 1206.16L391.82 1206.16H384.461C384.461 1210.22 387.756 1213.52 391.82 1213.52V1206.16ZM472.98 1206.16V1206.16V1213.52C477.044 1213.52 480.339 1210.22 480.339 1206.16H472.98ZM472.98 1206.16V1206.16H480.339C480.339 1202.09 477.044 1198.8 472.98 1198.8V1206.16ZM391.82 1198.8C387.756 1198.8 384.461 1202.09 384.461 1206.16H391.82L391.82 1206.16V1198.8Z" fill="white" mask="url(#path-23-inside-4_4_4993)"/>
<path d="M389.98 1206.16C389.98 1205.14 390.804 1204.32 391.82 1204.32H472.98C473.996 1204.32 474.819 1205.14 474.819 1206.16C474.819 1207.17 473.996 1208 472.98 1208H391.82C390.804 1208 389.98 1207.17 389.98 1206.16Z" fill="white" stroke="white" stroke-width="3.67962"/>
<path fill-rule="evenodd" clip-rule="evenodd" d="M535.339 940.161V963.806C535.339 965.08 534.306 966.113 533.032 966.113C531.757 966.113 530.725 965.08 530.725 963.806V939.392C530.725 937.268 532.446 935.547 534.57 935.547H544.82C546.944 935.547 548.665 937.268 548.665 939.392V949.389C548.665 950.663 547.632 951.696 546.358 951.696C545.084 951.696 544.051 950.663 544.051 949.389V940.161H535.339Z" fill="white" stroke="white" stroke-width="4.61403" stroke-linecap="round"/>
<path fill-rule="evenodd" clip-rule="evenodd" d="M563.393 940.161V963.806H558.779V939.392C558.779 937.268 560.501 935.547 562.624 935.547H572.875C574.998 935.547 576.72 937.268 576.72 939.392V963.806H572.106V940.161H563.393Z" fill="white" stroke="white" stroke-width="4.61403"/>
<path d="M516.415 965.855H525.49C520.404 966.248 516.415 970.498 516.415 975.667V1028.85L516.415 965.855ZM589.25 975.697C589.25 970.677 585.492 966.535 580.636 965.931L589.25 965.855V975.697Z" fill="white" stroke="white" stroke-width="15.7481"/>
<path fill-rule="evenodd" clip-rule="evenodd" d="M547.63 1064.91C546.011 1064.91 544.699 1063.43 544.699 1061.61V1052.16H538.838V1061.61C538.838 1067.08 542.774 1071.51 547.63 1071.51H559.074C563.93 1071.51 567.866 1067.08 567.866 1061.61V1052.16H562.005V1061.61C562.005 1063.43 560.692 1064.91 559.074 1064.91H547.63Z" fill="white" stroke="white" stroke-width="4.61403"/>
<path d="M517.513 1183.16H517.875L518.159 1182.94C523.13 1179.02 527.042 1173.77 529.912 1167.22C532.786 1160.66 534.215 1153.46 534.215 1145.65V1107.57V1106.53H533.172H513.147H512.104V1107.57V1145.94C512.104 1153.72 510.576 1160.31 507.569 1165.76H499.588C496.599 1160.59 495.068 1153.96 495.068 1145.79V1107.57V1106.53H494.025H474H472.957V1107.57V1146.38C472.957 1154.09 474.387 1161.15 477.265 1167.52C480.137 1173.88 484.049 1179.03 489.013 1182.94L489.297 1183.16H489.659H517.513ZM578.406 1106.53H577.363V1107.57V1204V1205.04H578.406H598.432H599.475V1204V1180.13C602.586 1182.17 606.478 1183.16 611.079 1183.16H623.877H624.284L624.584 1182.89C634.877 1173.41 639.977 1160.37 639.977 1143.9C639.977 1136.2 638.754 1129.12 636.295 1122.66C633.839 1116.22 630.447 1110.93 626.1 1106.81L625.798 1106.53H625.383H611.832C607.876 1106.53 604.76 1106.92 602.571 1107.77L602.563 1107.77L602.554 1107.77C600.836 1108.47 599.043 1109.6 597.177 1111.12L595.475 1107.16L595.204 1106.53H594.517H578.406ZM649.719 1106.53H648.676V1107.57V1204V1205.04H649.719H669.744H670.787V1204V1180.13C673.899 1182.17 677.79 1183.16 682.392 1183.16H695.19H695.597L695.896 1182.89C706.189 1173.41 711.289 1160.37 711.289 1143.9C711.289 1136.2 710.067 1129.12 707.607 1122.66C705.152 1116.22 701.759 1110.93 697.412 1106.81L697.111 1106.53H696.695H683.144C679.189 1106.53 676.073 1106.92 673.884 1107.77L673.875 1107.77L673.867 1107.77C672.149 1108.47 670.356 1109.6 668.489 1111.12L666.788 1107.16L666.516 1106.53H665.829H649.719ZM720.139 1182.12V1183.16H721.182H741.207H742.251V1182.12V1128.16H760.329H761.372V1127.12V1107.57V1106.53H760.329H754.457C748.514 1106.53 743.507 1108.89 739.482 1113.51L736.427 1107.12L736.144 1106.53H735.486H721.182H720.139V1107.57V1182.12ZM811.944 1183.16H812.344L812.642 1182.89C822.935 1173.62 828.043 1160.97 828.043 1145.06C828.043 1136.82 827.083 1129.89 825.126 1124.3C823.161 1118.59 819.51 1112.78 814.227 1106.88L813.916 1106.53H813.449H778.217H777.753L777.443 1106.87C772.454 1112.4 768.768 1118.14 766.406 1124.11L766.403 1124.12L766.4 1124.12C764.138 1130.1 763.021 1137.09 763.021 1145.06C763.021 1160.97 768.129 1173.62 778.422 1182.89L778.72 1183.16H779.12H811.944ZM539.712 1078.96H538.669V1080V1099.3V1100.34H539.712H567.818H568.862V1099.3V1080V1078.96H567.818H539.712ZM617.413 1144.48C617.413 1152.84 615.69 1159.92 612.292 1165.76H599.475V1123.93H612.175C615.643 1129.29 617.413 1136.12 617.413 1144.48ZM688.726 1144.48C688.726 1152.84 687.002 1159.92 683.605 1165.76H670.787V1123.93H683.487C686.955 1129.29 688.726 1136.12 688.726 1144.48ZM805.63 1143.6C805.63 1151.88 803.953 1159.25 800.621 1165.76H790.413C787.112 1159.92 785.433 1152.7 785.433 1144.04C785.433 1135.29 787.114 1128.63 790.35 1123.93H800.561C803.908 1128.81 805.63 1135.34 805.63 1143.6Z" fill="white" fill-opacity="0.972549" stroke="white" stroke-width="2.08655"/>
<mask id="mask0_4_4993" style="mask-type:luminance" maskUnits="userSpaceOnUse" x="296" y="801" width="93" height="345">
<path d="M296.344 801.867H388.545V1145.04H296.344V801.867Z" fill="white"/>
</mask>
<g mask="url(#mask0_4_4993)">
<path d="M358.012 803.978L358.247 803.943L358.463 803.843C358.879 803.65 359.119 803.586 359.321 803.555C359.562 803.517 359.818 803.514 360.368 803.514H360.371H360.374H360.377H360.38H360.383H360.386H360.389H360.392H360.395H360.399H360.402H360.405H360.408H360.411H360.414H360.417H360.42H360.423H360.426H360.429H360.432H360.435H360.438H360.441H360.444H360.447H360.45H360.453H360.456H360.459H360.462H360.465H360.468H360.471H360.475H360.478H360.481H360.484H360.487H360.49H360.493H360.496H360.499H360.502H360.505H360.508H360.511H360.514H360.517H360.52H360.523H360.526H360.529H360.532H360.535H360.538H360.541H360.544H360.547H360.55H360.553H360.556H360.559H360.562H360.565H360.568H360.571H360.574H360.577H360.58H360.583H360.586H360.589H360.592H360.595H360.598H360.601H360.604H360.607H360.61H360.613H360.616H360.619H360.622H360.625H360.628H360.631H360.633H360.636H360.639H360.642H360.645H360.648H360.651H360.654H360.657H360.66H360.663H360.666H360.669H360.672H360.675H360.678H360.68H360.683H360.686H360.689H360.692H360.695H360.698H360.701H360.704H360.707H360.71H360.712H360.715H360.718H360.721H360.724H360.727H360.73H360.733H360.736H360.738H360.741H360.744H360.747H360.75H360.753H360.756H360.758H360.761H360.764H360.767H360.77H360.773H360.775H360.778H360.781H360.784H360.787H360.789H360.792H360.795H360.798H360.801H360.804H360.806H360.809H360.812H360.815H360.817H360.82H360.823H360.826H360.829H360.831H360.834H360.837H360.84H360.842H360.845H360.848H360.851H360.853H360.856H360.859H360.861H360.864H360.867H360.87H360.872H360.875H360.878H360.88H360.883H360.886H360.888H360.891H360.894H360.896H360.899H360.902H360.904H360.907H360.91H360.912H360.915H360.918H360.92H360.923H360.925H360.928H360.931H360.933H360.936H360.938H360.941H360.944H360.946H360.949H360.951H360.954H360.957H360.959H360.962H360.964H360.967H360.969H360.972H360.974H360.977H360.979H360.982H360.984H360.987H360.989H360.992H360.994H360.997H360.999H361.002H361.004H361.007H361.009H361.012H361.014H361.017H361.019H361.021H361.024H361.026H361.029H361.031H361.034H361.036H361.038H361.041H361.043H361.046H361.048H361.05H361.053H361.055H361.057H361.06H361.062H361.064H361.067H361.069H361.071H361.074H361.076H361.078H361.081H361.083H361.085H361.087H361.09H361.092H361.094H361.096H361.099H361.101H361.103H361.105H361.108H361.11H361.112H361.114H361.116H361.119H361.121H361.123H361.125H361.127H361.129H361.132H361.134H361.136H361.138H361.14H361.142H361.144H361.146H361.149H361.151H361.153H361.155H361.157H361.159H361.161H361.163H361.165H361.167H361.169H361.171H361.173H361.175H361.177H361.179H361.181H361.183H361.185H361.187H361.189H361.191H361.193H361.195H361.197H361.199H361.201H361.203H361.205H361.206H361.208H361.21H361.212H361.214H361.216H361.218H361.22H361.221H361.223H361.225H361.227H361.229H361.23H361.232H361.234H361.236H361.238H361.239H361.241H361.243H361.245H361.246H361.248H361.25H361.251H361.253H361.255H361.257H361.258H361.26H361.262H361.263H361.265H361.266H361.268H361.27H361.271H361.273H361.274H361.276H361.278H361.279H361.281H361.282H361.284H361.285H361.287H361.288H361.29H361.291H361.293H361.294H361.296H361.297H361.299H361.3H361.302H361.303H361.305H361.306H361.307H361.309H361.31H361.312H361.313H361.314H361.316H361.317H361.318H361.32H361.321H361.322H361.324H361.325H361.326H361.327H361.329H361.33H361.331H361.332H361.334H361.335H361.336H361.337H361.339H361.34H361.341H361.342H361.343H361.344H361.345H361.347H361.348H361.349H361.35H361.351H361.352H361.353H361.354H361.355H361.356H361.357H361.358H361.359H361.36H361.361H361.362H361.363H361.364H361.365H361.366H361.367H361.368H361.369H361.37H361.371H361.372H361.373H361.373H361.374H361.375H361.376H361.377H361.378H361.378H361.379H361.38H361.381H361.381H361.382H361.383H361.384H361.384H361.385H361.386H361.386H361.387H361.388H361.388H361.389H361.39H361.39H361.391H361.392H361.392H361.393H361.393H361.394H361.394H361.395H361.396H361.396H361.397H361.397H361.398H361.398H361.398H361.399H361.399H361.4H361.4H361.401H361.401H361.401H361.402H361.402H361.402H361.403H361.403H361.403H361.404H361.404H361.404H361.405H361.405H361.405H361.405H361.406H361.406H361.406H361.406H361.406H361.407H361.407H361.407H361.407H361.407H361.407H361.407H361.407H361.408H361.408H361.408C368.167 803.514 374.603 807.96 379.368 815.646C384.116 823.304 387.041 833.962 386.787 845.753L386.786 845.771V845.789C386.786 857.59 383.733 868.258 378.918 875.924C374.085 883.617 367.647 888.064 360.888 888.064C356.691 888.064 352.884 886.337 349.44 883.596L348.99 883.237H348.415C342.426 883.237 337.675 886.417 333.979 891.069C330.301 895.698 327.547 901.916 325.473 908.394C321.322 921.367 319.752 935.876 319.229 942.184L319.081 943.967H320.87H323.901V983.63H314.114H312.468V985.276V1133.77L309.524 1123.92V984.794V983.147H307.878H298.09V943.484H301.641H303.287V941.838V878.127C303.287 847.424 313.9 829.429 325.921 818.85C338.002 808.217 351.688 804.918 358.012 803.978Z" fill="white" stroke="url(#paint2_linear_4_4993)" stroke-width="3.2929"/>
</g>
<circle cx="558.96" cy="2020.23" r="423.96" fill="white"/>
<path d="M619.605 1983.44H638.78L641.469 1989.89C644.097 1987.5 646.546 1985.83 648.816 1984.87C651.206 1983.92 654.73 1983.44 659.39 1983.44H675.519C680.537 1988.34 684.48 1994.67 687.347 2002.43C690.215 2010.2 691.648 2018.74 691.648 2028.06C691.648 2048.01 685.675 2063.67 673.727 2075.02H658.494C652.162 2075.02 647.144 2073.34 643.44 2070V2101.9H619.605V1983.44ZM643.44 2056.2H660.644C665.065 2048.67 667.275 2039.53 667.275 2028.78C667.275 2018.03 665.005 2009.18 660.465 2002.26H643.44V2056.2ZM745.884 2002.26H732.443C730.651 2004.41 729.158 2007.39 727.963 2011.22C726.888 2015.04 726.35 2018.74 726.35 2022.33H751.977C752.216 2018.74 751.738 2015.04 750.544 2011.22C749.349 2007.27 747.796 2004.29 745.884 2002.26ZM770.257 2056.2V2075.02H724.737C716.374 2069.4 710.46 2062.47 706.995 2054.23C703.65 2045.86 701.977 2037.44 701.977 2028.96C701.977 2009.36 709.384 1994.19 724.199 1983.44H753.232C761.237 1989.29 766.673 1995.5 769.54 2002.08C772.408 2008.65 773.841 2015.28 773.841 2021.97C773.841 2028.66 773.304 2034.39 772.229 2039.17H727.604C727.963 2041.92 728.978 2045.09 730.651 2048.67C732.443 2052.14 734.355 2054.65 736.386 2056.2H770.257ZM786.046 2075.02V1983.44H803.071L807.552 1993.12C812.331 1986.66 818.364 1983.44 825.652 1983.44H832.642V2007.45H809.882V2075.02H786.046Z" fill="url(#paint3_linear_4_4993)"/>
<path d="M453.448 1916.1L406.211 1907.83C405.589 1907.72 404.96 1908.03 404.632 1908.62L339.93 2024.37C339.379 2025.36 339.903 2026.6 340.946 2026.79L410.655 2039C411.479 2039.15 412.021 2039.98 411.865 2040.87L396.109 2130.77C395.812 2132.47 397.85 2133.38 398.815 2131.98L485.153 2006.52C485.828 2005.54 485.325 2004.17 484.22 2003.97L422.27 1993.11C421.28 1992.94 420.743 1991.8 421.193 1990.82L454.525 1918.4C454.975 1917.42 454.438 1916.28 453.448 1916.1Z" fill="url(#paint4_linear_4_4993)" stroke="url(#paint5_linear_4_4993)" stroke-width="1.63024"/>
<path fill-rule="evenodd" clip-rule="evenodd" d="M407.226 1908.79C407.744 1907.91 408.751 1907.45 409.754 1907.62L460.595 1916.53C462.194 1916.81 463.081 1918.54 462.375 1920L427.515 1992.16C427.28 1992.64 427.576 1993.22 428.109 1993.31L494.785 2005C496.569 2005.31 497.406 2007.39 496.337 2008.85L405.236 2133.47C403.709 2135.56 400.407 2134.15 400.854 2131.6L416.61 2041.7C416.687 2041.26 416.391 2040.84 415.948 2040.76L340.92 2027.61C339.237 2027.32 338.367 2025.43 339.236 2023.96L407.226 1908.79ZM409.473 1909.23C409.138 1909.17 408.803 1909.32 408.63 1909.62L340.64 2024.79C340.35 2025.28 340.64 2025.91 341.201 2026.01L416.229 2039.16C417.559 2039.39 418.449 2040.66 418.215 2041.99L402.459 2131.89C402.311 2132.74 403.411 2133.2 403.92 2132.51L495.021 2007.89C495.377 2007.4 495.098 2006.71 494.504 2006.6L427.827 1994.92C426.229 1994.64 425.342 1992.91 426.048 1991.45L460.907 1919.3C461.142 1918.81 460.846 1918.23 460.314 1918.14L409.473 1909.23Z" fill="black" stroke="url(#paint6_linear_4_4993)" stroke-width="1.63024"/>
<path d="M367.098 1773.53H479.498V1792.22C479.498 1797.16 475.496 1801.16 470.56 1801.16H376.036C371.099 1801.16 367.098 1797.16 367.098 1792.22V1773.53Z" fill="url(#paint7_linear_4_4993)" stroke="url(#paint8_linear_4_4993)" stroke-width="1.62511"/>
<mask id="path-38-inside-5_4_4993" fill="white">
<path fill-rule="evenodd" clip-rule="evenodd" d="M341.328 1776.62H501.239C522.78 1776.62 540.242 1794.08 540.242 1815.62V1916.09H559.743V1815.62C559.743 1783.31 533.55 1757.12 501.239 1757.12H341.328C309.017 1757.12 282.824 1783.31 282.824 1815.62V2225.15C282.824 2257.46 309.017 2283.65 341.328 2283.65H501.239C533.55 2283.65 559.743 2257.46 559.743 2225.15V2100.7H540.242V2225.15C540.242 2246.69 522.78 2264.15 501.239 2264.15H341.328C319.788 2264.15 302.326 2246.69 302.326 2225.15V1815.62C302.326 1794.08 319.788 1776.62 341.328 1776.62Z"/>
</mask>
<path fill-rule="evenodd" clip-rule="evenodd" d="M341.328 1776.62H501.239C522.78 1776.62 540.242 1794.08 540.242 1815.62V1916.09H559.743V1815.62C559.743 1783.31 533.55 1757.12 501.239 1757.12H341.328C309.017 1757.12 282.824 1783.31 282.824 1815.62V2225.15C282.824 2257.46 309.017 2283.65 341.328 2283.65H501.239C533.55 2283.65 559.743 2257.46 559.743 2225.15V2100.7H540.242V2225.15C540.242 2246.69 522.78 2264.15 501.239 2264.15H341.328C319.788 2264.15 302.326 2246.69 302.326 2225.15V1815.62C302.326 1794.08 319.788 1776.62 341.328 1776.62Z" fill="black"/>
<path d="M549.993 1916.09V2100.7H569.494V1916.09H549.993ZM530.491 1916.09V2100.7H549.993V1916.09H530.491ZM540.242 1916.09H520.741V1935.59H540.242V1916.09ZM559.743 1916.09V1935.59H579.245V1916.09H559.743ZM559.743 2100.7H579.245V2081.2H559.743V2100.7ZM540.242 2100.7V2081.2H520.741V2100.7H540.242ZM341.328 1796.12H501.239V1757.12H341.328V1796.12ZM321.827 1815.62C321.827 1804.85 330.558 1796.12 341.328 1796.12V1757.12C309.017 1757.12 282.824 1783.31 282.824 1815.62H321.827ZM321.827 2225.15V1815.62H282.824V2225.15H321.827ZM341.328 2244.65C330.558 2244.65 321.827 2235.92 321.827 2225.15H282.824C282.824 2257.46 309.017 2283.65 341.328 2283.65V2244.65ZM501.239 2244.65H341.328V2283.65H501.239V2244.65ZM520.741 2225.15C520.741 2235.92 512.01 2244.65 501.239 2244.65V2283.65C533.55 2283.65 559.743 2257.46 559.743 2225.15H520.741ZM501.239 1796.12C512.01 1796.12 520.741 1804.85 520.741 1815.62H559.743C559.743 1783.31 533.55 1757.12 501.239 1757.12V1796.12ZM302.326 1815.62C302.326 1794.08 319.788 1776.62 341.328 1776.62V1737.62C298.247 1737.62 263.323 1772.54 263.323 1815.62H302.326ZM302.326 2225.15V1815.62H263.323V2225.15H302.326ZM341.328 2264.15C319.788 2264.15 302.326 2246.69 302.326 2225.15H263.323C263.323 2268.23 298.247 2303.16 341.328 2303.16V2264.15ZM501.239 2264.15H341.328V2303.16H501.239V2264.15ZM540.242 2225.15C540.242 2246.69 522.78 2264.15 501.239 2264.15V2303.16C544.321 2303.16 579.245 2268.23 579.245 2225.15H540.242ZM501.239 1776.62C522.78 1776.62 540.242 1794.08 540.242 1815.62H579.245C579.245 1772.54 544.321 1737.62 501.239 1737.62V1776.62ZM341.328 1776.62H501.239V1737.62H341.328V1776.62ZM520.741 1815.62V1916.09H559.743V1815.62H520.741ZM540.242 1815.62V1916.09H579.245V1815.62H540.242ZM540.242 1935.59H559.743V1896.59H540.242V1935.59ZM540.242 2100.7V2225.15H579.245V2100.7H540.242ZM520.741 2100.7V2225.15H559.743V2100.7H520.741ZM559.743 2081.2H540.242V2120.2H559.743V2081.2Z" fill="url(#paint9_linear_4_4993)" mask="url(#path-38-inside-5_4_4993)"/>
<mask id="path-40-inside-6_4_4993" fill="white">
<path d="M374.373 2248.55C374.373 2246.39 376.119 2244.65 378.273 2244.65H464.299C466.454 2244.65 468.2 2246.39 468.2 2248.55L-nan -nanL468.2 2248.55C468.2 2250.7 466.454 2252.45 464.299 2252.45H378.273C376.119 2252.45 374.373 2250.7 374.373 2248.55L-nan -nanL374.373 2248.55Z"/>
</mask>
<path d="M374.373 2248.55C374.373 2246.39 376.119 2244.65 378.273 2244.65H464.299C466.454 2244.65 468.2 2246.39 468.2 2248.55L-nan -nanL468.2 2248.55C468.2 2250.7 466.454 2252.45 464.299 2252.45H378.273C376.119 2252.45 374.373 2250.7 374.373 2248.55L-nan -nanL374.373 2248.55Z" fill="black"/>
<path d="M378.273 2248.55H464.299V2240.75H378.273V2248.55ZM464.299 2248.55H378.273V2256.35H464.299V2248.55ZM378.273 2248.55L378.273 2248.55H370.473C370.473 2252.86 373.965 2256.35 378.273 2256.35V2248.55ZM464.299 2248.55V2248.55V2256.35C468.608 2256.35 472.1 2252.86 472.1 2248.55H464.299ZM464.299 2248.55V2248.55H472.1C472.1 2244.24 468.608 2240.75 464.299 2240.75V2248.55ZM378.273 2240.75C373.965 2240.75 370.473 2244.24 370.473 2248.55H378.273L378.273 2248.55V2240.75Z" fill="url(#paint10_linear_4_4993)" mask="url(#path-40-inside-6_4_4993)"/>
<path d="M376.323 2248.55C376.323 2247.47 377.196 2246.6 378.273 2246.6H464.299C465.377 2246.6 466.25 2247.47 466.25 2248.55C466.25 2249.63 465.377 2250.5 464.299 2250.5H378.273C377.196 2250.5 376.323 2249.63 376.323 2248.55Z" fill="black" stroke="url(#paint11_linear_4_4993)" stroke-width="3.90027"/>
<path fill-rule="evenodd" clip-rule="evenodd" d="M530.395 1966.6V1991.66C530.395 1993.01 529.3 1994.11 527.949 1994.11C526.599 1994.11 525.504 1993.01 525.504 1991.66V1965.79C525.504 1963.54 527.329 1961.71 529.58 1961.71H540.445C542.696 1961.71 544.52 1963.54 544.52 1965.79V1976.38C544.52 1977.73 543.426 1978.83 542.075 1978.83C540.724 1978.83 539.63 1977.73 539.63 1976.38V1966.6H530.395Z" fill="url(#paint12_linear_4_4993)"/>
<path fill-rule="evenodd" clip-rule="evenodd" d="M560.135 1966.6V1991.66H555.244V1965.79C555.244 1963.54 557.069 1961.71 559.32 1961.71H570.185C572.436 1961.71 574.261 1963.54 574.261 1965.79V1991.66H569.37V1966.6H560.135Z" fill="url(#paint13_linear_4_4993)"/>
<path fill-rule="evenodd" clip-rule="evenodd" d="M518.687 2060.61V2004.27C518.687 2003.12 519.621 2002.18 520.773 2002.18H530.264L530.387 1985.49H510.34C505.731 1985.49 501.994 1989.23 501.994 1993.84V2060.61C501.994 2076.74 515.073 2089.82 531.206 2089.82H566.677C582.811 2089.82 595.889 2076.74 595.889 2060.61V1993.84C595.889 1989.23 592.152 1985.49 587.543 1985.49H546.778L554.081 2002.18H577.11C578.262 2002.18 579.197 2003.12 579.197 2004.27V2060.61C579.197 2067.52 573.592 2073.13 566.677 2073.13H531.206C524.292 2073.13 518.687 2067.52 518.687 2060.61Z" fill="url(#paint14_linear_4_4993)"/>
<path fill-rule="evenodd" clip-rule="evenodd" d="M543.425 2098.83C541.709 2098.83 540.318 2097.26 540.318 2095.33V2085.31H534.105V2095.33C534.105 2101.13 538.278 2105.82 543.425 2105.82H555.555C560.702 2105.82 564.874 2101.13 564.874 2095.33V2085.31H558.661V2095.33C558.661 2097.26 557.271 2098.83 555.555 2098.83H543.425Z" fill="url(#paint15_linear_4_4993)"/>
<path d="M515.376 2223.81H515.737L516.02 2223.59C521.087 2219.61 525.076 2214.28 528.001 2207.62C530.931 2200.95 532.389 2193.64 532.389 2185.71V2147.02V2145.97H531.345H510.923H509.88V2147.02V2186C509.88 2193.91 508.32 2200.62 505.248 2206.16H497.082C494.029 2200.9 492.466 2194.16 492.466 2185.85V2147.02V2145.97H491.422H471H469.957V2147.02V2186.45C469.957 2194.29 471.415 2201.45 474.349 2207.93C477.277 2214.39 481.266 2219.62 486.325 2223.59L486.609 2223.81H486.969H515.376ZM577.477 2145.97H576.433V2147.02V2245V2246.04H577.477H597.899H598.942V2245V2220.71C602.117 2222.8 606.092 2223.81 610.797 2223.81H623.849H624.255L624.554 2223.53C635.047 2213.91 640.247 2200.66 640.247 2183.93C640.247 2176.11 639.001 2168.91 636.493 2162.36C633.99 2155.81 630.531 2150.43 626.1 2146.26L625.799 2145.97H625.385H611.565C607.532 2145.97 604.358 2146.37 602.13 2147.23L602.121 2147.23L602.113 2147.24C600.356 2147.95 598.521 2149.1 596.611 2150.65L594.865 2146.6L594.593 2145.97H593.907H577.477ZM650.203 2145.97H649.16V2147.02V2245V2246.04H650.203H670.626H671.669V2245V2220.71C674.843 2222.8 678.819 2223.81 683.524 2223.81H696.576H696.982L697.281 2223.53C707.774 2213.91 712.974 2200.66 712.974 2183.93C712.974 2176.11 711.728 2168.91 709.22 2162.36C706.716 2155.81 703.258 2150.43 698.827 2146.26L698.525 2145.97H698.111H684.292C680.259 2145.97 677.085 2146.37 674.856 2147.23L674.848 2147.23L674.839 2147.24C673.082 2147.95 671.248 2149.1 669.337 2150.65L667.591 2146.6L667.319 2145.97H666.633H650.203ZM722.04 2222.76V2223.81H723.084H743.506H744.549V2222.76V2167.92H763.007H764.05V2166.88V2147.02V2145.97H763.007H757.018C750.954 2145.97 745.847 2148.37 741.741 2153.09L738.612 2146.57L738.328 2145.97H737.671H723.084H722.04V2147.02V2222.76ZM815.645 2223.81H816.045L816.342 2223.54C826.834 2214.12 832.043 2201.27 832.043 2185.11C832.043 2176.74 831.064 2169.7 829.068 2164.02C827.065 2158.22 823.343 2152.32 817.957 2146.32L817.646 2145.97H817.18H781.25H780.787L780.477 2146.32C775.391 2151.93 771.632 2157.76 769.224 2163.83L769.221 2163.83L769.219 2163.84C766.911 2169.92 765.772 2177.01 765.772 2185.11C765.772 2201.27 770.981 2214.12 781.474 2223.54L781.771 2223.81H782.171H815.645ZM538.015 2117.96H536.972V2119V2138.61V2139.65H538.015H566.679H567.722V2138.61V2119V2117.96H566.679H538.015ZM617.278 2184.52C617.278 2193.02 615.518 2200.22 612.047 2206.16H598.942V2163.62H611.927C615.47 2169.07 617.278 2176.02 617.278 2184.52ZM690.005 2184.52C690.005 2193.02 688.245 2200.22 684.774 2206.16H671.669V2163.62H684.654C688.197 2169.07 690.005 2176.02 690.005 2184.52ZM809.227 2183.63C809.227 2192.04 807.514 2199.54 804.111 2206.16H793.674C790.303 2200.22 788.588 2192.87 788.588 2184.08C788.588 2175.17 790.305 2168.4 793.611 2163.62H804.049C807.468 2168.59 809.227 2175.22 809.227 2183.63Z" fill="url(#paint16_linear_4_4993)" stroke="url(#paint17_linear_4_4993)" stroke-width="2.08655"/>
<path d="M1724.79 1986.32H1743.96L1746.65 1992.77C1749.28 1990.38 1751.73 1988.71 1754 1987.75C1756.39 1986.8 1759.91 1986.32 1764.57 1986.32H1780.7C1785.72 1991.22 1789.66 1997.55 1792.53 2005.32C1795.4 2013.08 1796.83 2021.63 1796.83 2030.94C1796.83 2050.9 1790.86 2066.55 1778.91 2077.9H1763.68C1757.34 2077.9 1752.33 2076.23 1748.62 2072.88V2104.78H1724.79V1986.32ZM1748.62 2059.08H1765.83C1770.25 2051.55 1772.46 2042.41 1772.46 2031.66C1772.46 2020.91 1770.19 2012.07 1765.65 2005.14H1748.62V2059.08ZM1851.07 2005.14H1837.62C1835.83 2007.29 1834.34 2010.28 1833.14 2014.1C1832.07 2017.92 1831.53 2021.63 1831.53 2025.21H1857.16C1857.4 2021.63 1856.92 2017.92 1855.73 2014.1C1854.53 2010.16 1852.98 2007.17 1851.07 2005.14ZM1875.44 2059.08V2077.9H1829.92C1821.56 2072.28 1815.64 2065.35 1812.18 2057.11C1808.83 2048.75 1807.16 2040.32 1807.16 2031.84C1807.16 2012.25 1814.57 1997.07 1829.38 1986.32H1858.41C1866.42 1992.17 1871.85 1998.39 1874.72 2004.96C1877.59 2011.53 1879.02 2018.16 1879.02 2024.85C1879.02 2031.54 1878.49 2037.28 1877.41 2042.06H1832.79C1833.14 2044.8 1834.16 2047.97 1835.83 2051.55C1837.62 2055.02 1839.54 2057.53 1841.57 2059.08H1875.44ZM1891.23 2077.9V1986.32H1908.25L1912.73 1996C1917.51 1989.55 1923.55 1986.32 1930.83 1986.32H1937.82V2010.34H1915.06V2077.9H1891.23Z" fill="url(#paint18_linear_4_4993)"/>
<path d="M1558.62 1918.99L1511.38 1910.71C1510.76 1910.6 1510.13 1910.92 1509.81 1911.5L1445.1 2027.25C1444.55 2028.24 1445.08 2029.49 1446.12 2029.67L1515.83 2041.89C1516.65 2042.03 1517.19 2042.87 1517.04 2043.75L1501.28 2133.65C1500.99 2135.35 1503.02 2136.26 1503.99 2134.86L1590.33 2009.41C1591 2008.42 1590.5 2007.05 1589.39 2006.86L1527.44 1996C1526.45 1995.82 1525.92 1994.68 1526.37 1993.7L1559.7 1921.28C1560.15 1920.31 1559.61 1919.16 1558.62 1918.99Z" fill="url(#paint19_linear_4_4993)" stroke="url(#paint20_linear_4_4993)" stroke-width="1.63024"/>
<path fill-rule="evenodd" clip-rule="evenodd" d="M1512.4 1911.67C1512.92 1910.79 1513.93 1910.33 1514.93 1910.5L1565.77 1919.41C1567.37 1919.69 1568.26 1921.43 1567.55 1922.89L1532.69 1995.04C1532.46 1995.53 1532.75 1996.1 1533.28 1996.2L1599.96 2007.88C1601.75 2008.19 1602.58 2010.27 1601.51 2011.73L1510.41 2136.35C1508.88 2138.44 1505.58 2137.04 1506.03 2134.49L1521.79 2044.59C1521.86 2044.14 1521.57 2043.72 1521.12 2043.64L1446.1 2030.49C1444.41 2030.2 1443.54 2028.31 1444.41 2026.84L1512.4 1911.67ZM1514.65 1912.11C1514.31 1912.05 1513.98 1912.21 1513.81 1912.5L1445.82 2027.67C1445.53 2028.16 1445.82 2028.79 1446.38 2028.89L1521.4 2042.04C1522.73 2042.27 1523.62 2043.54 1523.39 2044.87L1507.64 2134.77C1507.49 2135.62 1508.59 2136.09 1509.1 2135.39L1600.2 2010.77C1600.55 2010.28 1600.27 2009.59 1599.68 2009.49L1533 1997.8C1531.4 1997.52 1530.52 1995.79 1531.22 1994.33L1566.08 1922.18C1566.32 1921.69 1566.02 1921.11 1565.49 1921.02L1514.65 1912.11Z" fill="black" stroke="url(#paint21_linear_4_4993)" stroke-width="1.63024"/>
<path d="M1472.27 1776.41H1584.67V1795.1C1584.67 1800.04 1580.67 1804.04 1575.74 1804.04H1481.21C1476.28 1804.04 1472.27 1800.04 1472.27 1795.1V1776.41Z" fill="url(#paint22_linear_4_4993)" stroke="url(#paint23_linear_4_4993)" stroke-width="1.62511"/>
<mask id="path-52-inside-7_4_4993" fill="white">
<path fill-rule="evenodd" clip-rule="evenodd" d="M1446.5 1779.5H1606.42C1627.96 1779.5 1645.42 1796.96 1645.42 1818.5V1918.97H1664.92V1818.5C1664.92 1786.19 1638.73 1760 1606.42 1760H1446.5C1414.19 1760 1388 1786.19 1388 1818.5V2228.03C1388 2260.34 1414.19 2286.54 1446.5 2286.54H1606.42C1638.73 2286.54 1664.92 2260.34 1664.92 2228.03V2103.58H1645.42V2228.03C1645.42 2249.57 1627.96 2267.04 1606.42 2267.04H1446.5C1424.96 2267.04 1407.5 2249.57 1407.5 2228.03V1818.5C1407.5 1796.96 1424.96 1779.5 1446.5 1779.5Z"/>
</mask>
<path fill-rule="evenodd" clip-rule="evenodd" d="M1446.5 1779.5H1606.42C1627.96 1779.5 1645.42 1796.96 1645.42 1818.5V1918.97H1664.92V1818.5C1664.92 1786.19 1638.73 1760 1606.42 1760H1446.5C1414.19 1760 1388 1786.19 1388 1818.5V2228.03C1388 2260.34 1414.19 2286.54 1446.5 2286.54H1606.42C1638.73 2286.54 1664.92 2260.34 1664.92 2228.03V2103.58H1645.42V2228.03C1645.42 2249.57 1627.96 2267.04 1606.42 2267.04H1446.5C1424.96 2267.04 1407.5 2249.57 1407.5 2228.03V1818.5C1407.5 1796.96 1424.96 1779.5 1446.5 1779.5Z" fill="black"/>
<path d="M1655.17 1918.97V2103.58H1674.67V1918.97H1655.17ZM1635.67 1918.97V2103.58H1655.17V1918.97H1635.67ZM1645.42 1918.97H1625.92V1938.47H1645.42V1918.97ZM1664.92 1918.97V1938.47H1684.42V1918.97H1664.92ZM1664.92 2103.58H1684.42V2084.08H1664.92V2103.58ZM1645.42 2103.58V2084.08H1625.92V2103.58H1645.42ZM1446.5 1799H1606.42V1760H1446.5V1799ZM1427 1818.5C1427 1807.73 1435.73 1799 1446.5 1799V1760C1414.19 1760 1388 1786.19 1388 1818.5H1427ZM1427 2228.03V1818.5H1388V2228.03H1427ZM1446.5 2247.53C1435.73 2247.53 1427 2238.8 1427 2228.03H1388C1388 2260.34 1414.19 2286.54 1446.5 2286.54V2247.53ZM1606.42 2247.53H1446.5V2286.54H1606.42V2247.53ZM1625.92 2228.03C1625.92 2238.8 1617.19 2247.53 1606.42 2247.53V2286.54C1638.73 2286.54 1664.92 2260.34 1664.92 2228.03H1625.92ZM1606.42 1799C1617.19 1799 1625.92 1807.73 1625.92 1818.5H1664.92C1664.92 1786.19 1638.73 1760 1606.42 1760V1799ZM1407.5 1818.5C1407.5 1796.96 1424.96 1779.5 1446.5 1779.5V1740.5C1403.42 1740.5 1368.5 1775.42 1368.5 1818.5H1407.5ZM1407.5 2228.03V1818.5H1368.5V2228.03H1407.5ZM1446.5 2267.04C1424.96 2267.04 1407.5 2249.57 1407.5 2228.03H1368.5C1368.5 2271.11 1403.42 2306.04 1446.5 2306.04V2267.04ZM1606.42 2267.04H1446.5V2306.04H1606.42V2267.04ZM1645.42 2228.03C1645.42 2249.57 1627.96 2267.04 1606.42 2267.04V2306.04C1649.5 2306.04 1684.42 2271.11 1684.42 2228.03H1645.42ZM1606.42 1779.5C1627.96 1779.5 1645.42 1796.96 1645.42 1818.5H1684.42C1684.42 1775.42 1649.5 1740.5 1606.42 1740.5V1779.5ZM1446.5 1779.5H1606.42V1740.5H1446.5V1779.5ZM1625.92 1818.5V1918.97H1664.92V1818.5H1625.92ZM1645.42 1818.5V1918.97H1684.42V1818.5H1645.42ZM1645.42 1938.47H1664.92V1899.47H1645.42V1938.47ZM1645.42 2103.58V2228.03H1684.42V2103.58H1645.42ZM1625.92 2103.58V2228.03H1664.92V2103.58H1625.92ZM1664.92 2084.08H1645.42V2123.09H1664.92V2084.08Z" fill="url(#paint24_linear_4_4993)" mask="url(#path-52-inside-7_4_4993)"/>
<mask id="path-54-inside-8_4_4993" fill="white">
<path d="M1479.54 2251.44C1479.54 2249.28 1481.29 2247.54 1483.45 2247.54H1569.47C1571.63 2247.54 1573.37 2249.28 1573.37 2251.44L-nan -nanL1573.37 2251.44C1573.37 2253.59 1571.63 2255.34 1569.47 2255.34H1483.45C1481.29 2255.34 1479.54 2253.59 1479.54 2251.44L-nan -nanL1479.54 2251.44Z"/>
</mask>
<path d="M1479.54 2251.44C1479.54 2249.28 1481.29 2247.54 1483.45 2247.54H1569.47C1571.63 2247.54 1573.37 2249.28 1573.37 2251.44L-nan -nanL1573.37 2251.44C1573.37 2253.59 1571.63 2255.34 1569.47 2255.34H1483.45C1481.29 2255.34 1479.54 2253.59 1479.54 2251.44L-nan -nanL1479.54 2251.44Z" fill="black"/>
<path d="M1483.45 2251.44H1569.47V2243.63H1483.45V2251.44ZM1569.47 2251.44H1483.45V2259.24H1569.47V2251.44ZM1483.45 2251.44L1483.45 2251.44H1475.64C1475.64 2255.74 1479.14 2259.24 1483.45 2259.24V2251.44ZM1569.47 2251.44V2251.44V2259.24C1573.78 2259.24 1577.27 2255.74 1577.27 2251.44H1569.47ZM1569.47 2251.44V2251.44H1577.27C1577.27 2247.13 1573.78 2243.63 1569.47 2243.63V2251.44ZM1483.45 2243.63C1479.14 2243.63 1475.64 2247.13 1475.64 2251.44H1483.45L1483.45 2251.44V2243.63Z" fill="url(#paint25_linear_4_4993)" mask="url(#path-54-inside-8_4_4993)"/>
<path d="M1481.5 2251.44C1481.5 2250.36 1482.37 2249.49 1483.45 2249.49H1569.47C1570.55 2249.49 1571.42 2250.36 1571.42 2251.44C1571.42 2252.51 1570.55 2253.39 1569.47 2253.39H1483.45C1482.37 2253.39 1481.5 2252.51 1481.5 2251.44Z" fill="black" stroke="url(#paint26_linear_4_4993)" stroke-width="3.90027"/>
<path fill-rule="evenodd" clip-rule="evenodd" d="M1635.56 1969.48V1994.55C1635.56 1995.9 1634.47 1996.99 1633.12 1996.99C1631.77 1996.99 1630.67 1995.9 1630.67 1994.55V1968.67C1630.67 1966.42 1632.5 1964.59 1634.75 1964.59H1645.61C1647.86 1964.59 1649.69 1966.42 1649.69 1968.67V1979.27C1649.69 1980.62 1648.59 1981.71 1647.24 1981.71C1645.89 1981.71 1644.8 1980.62 1644.8 1979.27V1969.48H1635.56Z" fill="url(#paint27_linear_4_4993)"/>
<path fill-rule="evenodd" clip-rule="evenodd" d="M1665.3 1969.48V1994.55H1660.41V1968.67C1660.41 1966.42 1662.24 1964.59 1664.49 1964.59H1675.35C1677.6 1964.59 1679.43 1966.42 1679.43 1968.67V1994.55H1674.54V1969.48H1665.3Z" fill="url(#paint28_linear_4_4993)"/>
<path fill-rule="evenodd" clip-rule="evenodd" d="M1623.85 2063.49V2007.15C1623.85 2006 1624.79 2005.07 1625.94 2005.07H1635.43L1635.55 1988.38H1615.51C1610.9 1988.38 1607.16 1992.11 1607.16 1996.72V2063.49C1607.16 2079.62 1620.24 2092.7 1636.37 2092.7H1671.85C1687.98 2092.7 1701.06 2079.62 1701.06 2063.49V1996.72C1701.06 1992.11 1697.32 1988.38 1692.71 1988.38H1651.95L1659.25 2005.07H1682.28C1683.43 2005.07 1684.36 2006 1684.36 2007.15V2063.49C1684.36 2070.41 1678.76 2076.01 1671.85 2076.01H1636.37C1629.46 2076.01 1623.85 2070.41 1623.85 2063.49Z" fill="url(#paint29_linear_4_4993)"/>
<path fill-rule="evenodd" clip-rule="evenodd" d="M1648.59 2101.71C1646.88 2101.71 1645.49 2100.15 1645.49 2098.21V2088.19H1639.28V2098.21C1639.28 2104.01 1643.45 2108.71 1648.59 2108.71H1660.72C1665.87 2108.71 1670.04 2104.01 1670.04 2098.21V2088.19H1663.83V2098.21C1663.83 2100.15 1662.44 2101.71 1660.72 2101.71H1648.59Z" fill="url(#paint30_linear_4_4993)"/>
<path d="M1618.38 2218.81H1618.74L1619.02 2218.59C1624.09 2214.61 1628.08 2209.28 1631 2202.62C1633.93 2195.95 1635.39 2188.64 1635.39 2180.71V2142.02V2140.97H1634.35H1613.92H1612.88V2142.02V2181C1612.88 2188.91 1611.32 2195.62 1608.25 2201.16H1600.08C1597.03 2195.9 1595.47 2189.16 1595.47 2180.85V2142.02V2140.97H1594.42H1574H1572.96V2142.02V2181.45C1572.96 2189.29 1574.42 2196.45 1577.35 2202.93C1580.28 2209.39 1584.27 2214.62 1589.33 2218.59L1589.61 2218.81H1589.97H1618.38ZM1680.48 2140.97H1679.43V2142.02V2240V2241.04H1680.48H1700.9H1701.94V2240V2215.71C1705.12 2217.8 1709.09 2218.81 1713.8 2218.81H1726.85H1727.26L1727.55 2218.53C1738.05 2208.91 1743.25 2195.66 1743.25 2178.93C1743.25 2171.11 1742 2163.91 1739.49 2157.36C1736.99 2150.81 1733.53 2145.43 1729.1 2141.26L1728.8 2140.97H1728.38H1714.57C1710.53 2140.97 1707.36 2141.37 1705.13 2142.23L1705.12 2142.23L1705.11 2142.24C1703.36 2142.95 1701.52 2144.1 1699.61 2145.65L1697.86 2141.6L1697.59 2140.97H1696.91H1680.48ZM1753.2 2140.97H1752.16V2142.02V2240V2241.04H1753.2H1773.63H1774.67V2240V2215.71C1777.84 2217.8 1781.82 2218.81 1786.52 2218.81H1799.58H1799.98L1800.28 2218.53C1810.77 2208.91 1815.97 2195.66 1815.97 2178.93C1815.97 2171.11 1814.73 2163.91 1812.22 2157.36C1809.72 2150.81 1806.26 2145.43 1801.83 2141.26L1801.53 2140.97H1801.11H1787.29C1783.26 2140.97 1780.08 2141.37 1777.86 2142.23L1777.85 2142.23L1777.84 2142.24C1776.08 2142.95 1774.25 2144.1 1772.34 2145.65L1770.59 2141.6L1770.32 2140.97H1769.63H1753.2ZM1825.04 2217.76V2218.81H1826.08H1846.51H1847.55V2217.76V2162.92H1866.01H1867.05V2161.88V2142.02V2140.97H1866.01H1860.02C1853.95 2140.97 1848.85 2143.37 1844.74 2148.09L1841.61 2141.57L1841.33 2140.97H1840.67H1826.08H1825.04V2142.02V2217.76ZM1918.64 2218.81H1919.04L1919.34 2218.54C1929.83 2209.12 1935.04 2196.27 1935.04 2180.11C1935.04 2171.74 1934.06 2164.7 1932.07 2159.02C1930.06 2153.22 1926.34 2147.32 1920.96 2141.32L1920.65 2140.97H1920.18H1884.25H1883.79L1883.48 2141.32C1878.39 2146.93 1874.63 2152.76 1872.22 2158.83L1872.22 2158.83L1872.22 2158.84C1869.91 2164.92 1868.77 2172.01 1868.77 2180.11C1868.77 2196.27 1873.98 2209.12 1884.47 2218.54L1884.77 2218.81H1885.17H1918.64ZM1641.02 2112.96H1639.97V2114V2133.61V2134.65H1641.02H1669.68H1670.72V2133.61V2114V2112.96H1669.68H1641.02ZM1720.28 2179.52C1720.28 2188.02 1718.52 2195.22 1715.05 2201.16H1701.94V2158.62H1714.93C1718.47 2164.07 1720.28 2171.02 1720.28 2179.52ZM1793 2179.52C1793 2188.02 1791.24 2195.22 1787.77 2201.16H1774.67V2158.62H1787.65C1791.2 2164.07 1793 2171.02 1793 2179.52ZM1912.23 2178.63C1912.23 2187.04 1910.51 2194.54 1907.11 2201.16H1896.67C1893.3 2195.22 1891.59 2187.87 1891.59 2179.08C1891.59 2170.17 1893.3 2163.4 1896.61 2158.62H1907.05C1910.47 2163.59 1912.23 2170.22 1912.23 2178.63Z" fill="url(#paint31_linear_4_4993)" stroke="url(#paint32_linear_4_4993)" stroke-width="2.08655"/>
<circle cx="2610.99" cy="991.133" r="416.551" fill="url(#paint33_linear_4_4993)" stroke="black" stroke-width="13.1716"/>
<path d="M2692.1 954.947H2710.19L2712.72 961.033C2715.2 958.779 2717.51 957.201 2719.66 956.299C2721.91 955.398 2725.23 954.947 2729.63 954.947H2744.85C2749.58 959.568 2753.3 965.542 2756.01 972.869C2758.71 980.195 2760.06 988.254 2760.06 997.046C2760.06 1015.87 2754.43 1030.64 2743.16 1041.34H2728.79C2722.81 1041.34 2718.08 1039.77 2714.58 1036.61V1066.7H2692.1V954.947ZM2714.58 1023.59H2730.81C2734.98 1016.49 2737.07 1007.87 2737.07 997.723C2737.07 987.578 2734.93 979.237 2730.65 972.7H2714.58V1023.59ZM2811.23 972.7H2798.55C2796.86 974.728 2795.45 977.546 2794.32 981.153C2793.31 984.76 2792.8 988.254 2792.8 991.636H2816.98C2817.21 988.254 2816.75 984.76 2815.63 981.153C2814.5 977.434 2813.04 974.616 2811.23 972.7ZM2834.23 1023.59V1041.34H2791.28C2783.39 1036.05 2777.81 1029.51 2774.54 1021.73C2771.39 1013.84 2769.81 1005.89 2769.81 997.892C2769.81 979.406 2776.8 965.091 2790.77 954.947H2818.16C2825.72 960.47 2830.84 966.331 2833.55 972.53C2836.25 978.73 2837.61 984.986 2837.61 991.298C2837.61 997.61 2837.1 1003.02 2836.09 1007.53H2793.99C2794.32 1010.12 2795.28 1013.11 2796.86 1016.49C2798.55 1019.76 2800.35 1022.13 2802.27 1023.59H2834.23ZM2849.12 1041.34V954.947H2865.18L2869.41 964.077C2873.92 957.99 2879.61 954.947 2886.49 954.947H2893.08V977.603H2871.61V1041.34H2849.12Z" fill="black"/>
<path d="M2535.34 892.452L2490.78 884.642C2490.19 884.539 2489.6 884.838 2489.29 885.392L2428.25 994.593C2427.73 995.523 2428.22 996.7 2429.21 996.872L2494.97 1008.4C2495.75 1008.53 2496.26 1009.32 2496.11 1010.16L2481.25 1094.97C2480.97 1096.58 2482.89 1097.43 2483.8 1096.11L2565.26 977.754C2565.89 976.828 2565.42 975.531 2564.38 975.349L2505.93 965.106C2505 964.942 2504.49 963.862 2504.92 962.94L2536.36 894.618C2536.79 893.695 2536.28 892.616 2535.34 892.452Z" fill="black" stroke="black" stroke-width="1.53801"/>
<path fill-rule="evenodd" clip-rule="evenodd" d="M2491.75 885.542C2492.23 884.715 2493.18 884.277 2494.13 884.442L2542.1 892.849C2543.6 893.113 2544.44 894.746 2543.77 896.125L2510.89 964.194C2510.66 964.653 2510.94 965.198 2511.45 965.286L2574.35 976.311C2576.03 976.606 2576.82 978.565 2575.82 979.944L2489.87 1097.51C2488.43 1099.49 2485.31 1098.16 2485.73 1095.75L2500.6 1010.94C2500.67 1010.52 2500.39 1010.12 2499.97 1010.05L2429.19 997.644C2427.6 997.366 2426.78 995.587 2427.6 994.199L2491.75 885.542ZM2493.86 885.957C2493.55 885.902 2493.23 886.048 2493.07 886.324L2428.93 994.981C2428.65 995.444 2428.93 996.037 2429.46 996.129L2500.24 1008.53C2501.49 1008.75 2502.33 1009.95 2502.11 1011.21L2487.25 1096.02C2487.11 1096.82 2488.15 1097.26 2488.63 1096.61L2574.57 979.037C2574.91 978.577 2574.65 977.924 2574.09 977.825L2511.18 966.801C2509.67 966.537 2508.84 964.903 2509.5 963.525L2542.39 895.456C2542.61 894.996 2542.33 894.452 2541.83 894.364L2493.86 885.957Z" fill="black" stroke="black" stroke-width="1.53801"/>
<path d="M2453.89 757.942H2559.94V775.574C2559.94 780.231 2556.16 784.006 2551.5 784.006H2462.33C2457.67 784.006 2453.89 780.231 2453.89 775.574V757.942Z" fill="black" stroke="black" stroke-width="1.53317"/>
<mask id="path-67-inside-9_4_4993" fill="white">
<path fill-rule="evenodd" clip-rule="evenodd" d="M2429.58 760.855H2580.45C2600.77 760.855 2617.24 777.329 2617.24 797.651V892.435H2635.64V797.651C2635.64 767.168 2610.93 742.457 2580.45 742.457H2429.58C2399.1 742.457 2374.39 767.168 2374.39 797.651V1184.01C2374.39 1214.49 2399.1 1239.21 2429.58 1239.21H2580.45C2610.93 1239.21 2635.64 1214.49 2635.64 1184.01V1066.6H2617.24V1184.01C2617.24 1204.33 2600.77 1220.81 2580.45 1220.81H2429.58C2409.26 1220.81 2392.78 1204.33 2392.78 1184.01V797.651C2392.78 777.329 2409.26 760.855 2429.58 760.855Z"/>
</mask>
<path fill-rule="evenodd" clip-rule="evenodd" d="M2429.58 760.855H2580.45C2600.77 760.855 2617.24 777.329 2617.24 797.651V892.435H2635.64V797.651C2635.64 767.168 2610.93 742.457 2580.45 742.457H2429.58C2399.1 742.457 2374.39 767.168 2374.39 797.651V1184.01C2374.39 1214.49 2399.1 1239.21 2429.58 1239.21H2580.45C2610.93 1239.21 2635.64 1214.49 2635.64 1184.01V1066.6H2617.24V1184.01C2617.24 1204.33 2600.77 1220.81 2580.45 1220.81H2429.58C2409.26 1220.81 2392.78 1204.33 2392.78 1184.01V797.651C2392.78 777.329 2409.26 760.855 2429.58 760.855Z" fill="black"/>
<path d="M2626.44 892.435V1066.6H2644.84V892.435H2626.44ZM2608.04 892.435V1066.6H2626.44V892.435H2608.04ZM2617.24 892.435H2598.84V910.834H2617.24V892.435ZM2635.64 892.435V910.834H2654.04V892.435H2635.64ZM2635.64 1066.6H2654.04V1048.21H2635.64V1066.6ZM2617.24 1066.6V1048.21H2598.84V1066.6H2617.24ZM2429.58 779.253H2580.45V742.457H2429.58V779.253ZM2411.18 797.651C2411.18 787.49 2419.42 779.253 2429.58 779.253V742.457C2399.1 742.457 2374.39 767.168 2374.39 797.651H2411.18ZM2411.18 1184.01V797.651H2374.39V1184.01H2411.18ZM2429.58 1202.41C2419.42 1202.41 2411.18 1194.17 2411.18 1184.01H2374.39C2374.39 1214.49 2399.1 1239.21 2429.58 1239.21V1202.41ZM2580.45 1202.41H2429.58V1239.21H2580.45V1202.41ZM2598.84 1184.01C2598.84 1194.17 2590.61 1202.41 2580.45 1202.41V1239.21C2610.93 1239.21 2635.64 1214.49 2635.64 1184.01H2598.84ZM2580.45 779.253C2590.61 779.253 2598.84 787.49 2598.84 797.651H2635.64C2635.64 767.168 2610.93 742.457 2580.45 742.457V779.253ZM2392.78 797.651C2392.78 777.329 2409.26 760.855 2429.58 760.855V724.059C2388.94 724.059 2355.99 757.007 2355.99 797.651H2392.78ZM2392.78 1184.01V797.651H2355.99V1184.01H2392.78ZM2429.58 1220.81C2409.26 1220.81 2392.78 1204.33 2392.78 1184.01H2355.99C2355.99 1224.65 2388.94 1257.6 2429.58 1257.6V1220.81ZM2580.45 1220.81H2429.58V1257.6H2580.45V1220.81ZM2617.24 1184.01C2617.24 1204.33 2600.77 1220.81 2580.45 1220.81V1257.6C2621.09 1257.6 2654.04 1224.65 2654.04 1184.01H2617.24ZM2580.45 760.855C2600.77 760.855 2617.24 777.329 2617.24 797.651H2654.04C2654.04 757.007 2621.09 724.059 2580.45 724.059V760.855ZM2429.58 760.855H2580.45V724.059H2429.58V760.855ZM2598.84 797.651V892.435H2635.64V797.651H2598.84ZM2617.24 797.651V892.435H2654.04V797.651H2617.24ZM2617.24 910.834H2635.64V874.037H2617.24V910.834ZM2617.24 1066.6V1184.01H2654.04V1066.6H2617.24ZM2598.84 1066.6V1184.01H2635.64V1066.6H2598.84ZM2635.64 1048.21H2617.24V1085H2635.64V1048.21Z" fill="black" mask="url(#path-67-inside-9_4_4993)"/>
<mask id="path-69-inside-10_4_4993" fill="white">
<path d="M2460.75 1206.09C2460.75 1204.06 2462.4 1202.41 2464.43 1202.41H2545.59C2547.62 1202.41 2549.27 1204.06 2549.27 1206.09L-nan -nanL2549.27 1206.09C2549.27 1208.12 2547.62 1209.77 2545.59 1209.77H2464.43C2462.4 1209.77 2460.75 1208.12 2460.75 1206.09L-nan -nanL2460.75 1206.09Z"/>
</mask>
<path d="M2460.75 1206.09C2460.75 1204.06 2462.4 1202.41 2464.43 1202.41H2545.59C2547.62 1202.41 2549.27 1204.06 2549.27 1206.09L-nan -nanL2549.27 1206.09C2549.27 1208.12 2547.62 1209.77 2545.59 1209.77H2464.43C2462.4 1209.77 2460.75 1208.12 2460.75 1206.09L-nan -nanL2460.75 1206.09Z" fill="black"/>
<path d="M2464.43 1206.09H2545.59V1198.73H2464.43V1206.09ZM2545.59 1206.09H2464.43V1213.45H2545.59V1206.09ZM2464.43 1206.09L2464.43 1206.09H2457.07C2457.07 1210.15 2460.37 1213.45 2464.43 1213.45V1206.09ZM2545.59 1206.09V1206.09V1213.45C2549.65 1213.45 2552.95 1210.15 2552.95 1206.09H2545.59ZM2545.59 1206.09V1206.09H2552.95C2552.95 1202.03 2549.65 1198.73 2545.59 1198.73V1206.09ZM2464.43 1198.73C2460.37 1198.73 2457.07 1202.03 2457.07 1206.09H2464.43L2464.43 1206.09V1198.73Z" fill="black" mask="url(#path-69-inside-10_4_4993)"/>
<path d="M2462.59 1206.09C2462.59 1205.07 2463.41 1204.25 2464.43 1204.25H2545.59C2546.61 1204.25 2547.43 1205.07 2547.43 1206.09C2547.43 1207.11 2546.61 1207.93 2545.59 1207.93H2464.43C2463.41 1207.93 2462.59 1207.11 2462.59 1206.09Z" fill="black" stroke="black" stroke-width="3.67962"/>
<path fill-rule="evenodd" clip-rule="evenodd" d="M2607.94 940.091V963.735C2607.94 965.01 2606.91 966.042 2605.63 966.042C2604.36 966.042 2603.33 965.01 2603.33 963.735V939.322C2603.33 937.198 2605.05 935.477 2607.17 935.477H2617.42C2619.55 935.477 2621.27 937.198 2621.27 939.322V949.319C2621.27 950.593 2620.23 951.626 2618.96 951.626C2617.69 951.626 2616.65 950.593 2616.65 949.319V940.091H2607.94Z" fill="black" stroke="black" stroke-width="4.61403" stroke-linecap="round"/>
<path fill-rule="evenodd" clip-rule="evenodd" d="M2635.99 940.091V963.735H2631.38V939.322C2631.38 937.198 2633.1 935.477 2635.23 935.477H2645.48C2647.6 935.477 2649.32 937.198 2649.32 939.322V963.735H2644.71V940.091H2635.99Z" fill="black" stroke="black" stroke-width="4.61403"/>
<path d="M2589.02 965.784H2598.09C2593.01 966.177 2589.02 970.427 2589.02 975.597V1028.78L2589.02 965.784ZM2652.01 965.784L2635.43 965.784L2661.85 965.784V975.627C2661.85 970.191 2657.44 965.784 2652.01 965.784Z" fill="black" stroke="black" stroke-width="15.7481"/>
<path fill-rule="evenodd" clip-rule="evenodd" d="M2620.23 1064.84C2618.61 1064.84 2617.3 1063.36 2617.3 1061.54V1052.09H2611.44V1061.54C2611.44 1067.01 2615.38 1071.44 2620.23 1071.44H2631.68C2636.53 1071.44 2640.47 1067.01 2640.47 1061.54V1052.09H2634.61V1061.54C2634.61 1063.36 2633.29 1064.84 2631.68 1064.84H2620.23Z" fill="black" stroke="black" stroke-width="4.61403"/>
<path d="M2590.51 1183.16H2590.87L2591.16 1182.94C2596.13 1179.02 2600.04 1173.77 2602.91 1167.22C2605.79 1160.66 2607.22 1153.46 2607.22 1145.65V1107.57V1106.53H2606.17H2586.15H2585.1V1107.57V1145.94C2585.1 1153.72 2583.58 1160.31 2580.57 1165.76H2572.59C2569.6 1160.59 2568.07 1153.96 2568.07 1145.79V1107.57V1106.53H2567.03H2547H2545.96V1107.57V1146.38C2545.96 1154.09 2547.39 1161.15 2550.26 1167.52C2553.14 1173.88 2557.05 1179.03 2562.01 1182.94L2562.3 1183.16H2562.66H2590.51ZM2651.41 1106.53H2650.36V1107.57V1204V1205.04H2651.41H2671.43H2672.47V1204V1180.13C2675.59 1182.17 2679.48 1183.16 2684.08 1183.16H2696.88H2697.28L2697.58 1182.89C2707.88 1173.41 2712.98 1160.37 2712.98 1143.9C2712.98 1136.2 2711.75 1129.12 2709.29 1122.66C2706.84 1116.22 2703.45 1110.93 2699.1 1106.81L2698.8 1106.53H2698.38H2684.83C2680.88 1106.53 2677.76 1106.92 2675.57 1107.77L2675.56 1107.77L2675.55 1107.77C2673.84 1108.47 2672.04 1109.6 2670.18 1111.12L2668.48 1107.16L2668.2 1106.53H2667.52H2651.41ZM2722.72 1106.53H2721.68V1107.57V1204V1205.04H2722.72H2742.74H2743.79V1204V1180.13C2746.9 1182.17 2750.79 1183.16 2755.39 1183.16H2768.19H2768.6L2768.9 1182.89C2779.19 1173.41 2784.29 1160.37 2784.29 1143.9C2784.29 1136.2 2783.07 1129.12 2780.61 1122.66C2778.15 1116.22 2774.76 1110.93 2770.41 1106.81L2770.11 1106.53H2769.7H2756.14C2752.19 1106.53 2749.07 1106.92 2746.88 1107.77L2746.88 1107.77L2746.87 1107.77C2745.15 1108.47 2743.36 1109.6 2741.49 1111.12L2739.79 1107.16L2739.52 1106.53H2738.83H2722.72ZM2793.14 1182.12V1183.16H2794.18H2814.21H2815.25V1182.12V1128.16H2833.33H2834.37V1127.12V1107.57V1106.53H2833.33H2827.46C2821.51 1106.53 2816.51 1108.89 2812.48 1113.51L2809.43 1107.12L2809.14 1106.53H2808.49H2794.18H2793.14V1107.57V1182.12ZM2884.94 1183.16H2885.34L2885.64 1182.89C2895.93 1173.62 2901.04 1160.97 2901.04 1145.06C2901.04 1136.82 2900.08 1129.89 2898.13 1124.3C2896.16 1118.59 2892.51 1112.78 2887.23 1106.88L2886.92 1106.53H2886.45H2851.22H2850.75L2850.44 1106.87C2845.45 1112.4 2841.77 1118.14 2839.41 1124.11L2839.4 1124.12L2839.4 1124.12C2837.14 1130.1 2836.02 1137.09 2836.02 1145.06C2836.02 1160.97 2841.13 1173.62 2851.42 1182.89L2851.72 1183.16H2852.12H2884.94ZM2612.71 1078.96H2611.67V1080V1099.3V1100.34H2612.71H2640.82H2641.86V1099.3V1080V1078.96H2640.82H2612.71ZM2690.41 1144.48C2690.41 1152.84 2688.69 1159.92 2685.29 1165.76H2672.47V1123.93H2685.17C2688.64 1129.29 2690.41 1136.12 2690.41 1144.48ZM2761.73 1144.48C2761.73 1152.84 2760 1159.92 2756.6 1165.76H2743.79V1123.93H2756.49C2759.96 1129.29 2761.73 1136.12 2761.73 1144.48ZM2878.63 1143.6C2878.63 1151.88 2876.95 1159.25 2873.62 1165.76H2863.41C2860.11 1159.92 2858.43 1152.7 2858.43 1144.04C2858.43 1135.29 2860.11 1128.63 2863.35 1123.93H2873.56C2876.91 1128.81 2878.63 1135.34 2878.63 1143.6Z" fill="black" fill-opacity="0.972549" stroke="black" stroke-width="2.08655"/>
<defs>
<linearGradient id="paint0_linear_4_4993" x1="1282.41" y1="646.776" x2="1638.03" y2="1146.44" gradientUnits="userSpaceOnUse">
<stop stop-color="#FA8C14"/>
<stop offset="1" stop-color="#F95A08"/>
</linearGradient>
<linearGradient id="paint1_linear_4_4993" x1="254.289" y1="646.776" x2="609.904" y2="1146.44" gradientUnits="userSpaceOnUse">
<stop stop-color="#FA8C14"/>
<stop offset="1" stop-color="#F95A08"/>
</linearGradient>
<linearGradient id="paint2_linear_4_4993" x1="309.412" y1="833.811" x2="410.11" y2="871.744" gradientUnits="userSpaceOnUse">
<stop stop-color="#FA8C14"/>
<stop offset="1" stop-color="#F95A08"/>
</linearGradient>
<linearGradient id="paint3_linear_4_4993" x1="643.473" y1="1904.38" x2="752.307" y2="2040.85" gradientUnits="userSpaceOnUse">
<stop stop-color="#FA8C14"/>
<stop offset="1" stop-color="#F95A08"/>
</linearGradient>
<linearGradient id="paint4_linear_4_4993" x1="377.51" y1="1923.87" x2="459.434" y2="2026.51" gradientUnits="userSpaceOnUse">
<stop stop-color="#FA8C14"/>
<stop offset="1" stop-color="#F95A08"/>
</linearGradient>
<linearGradient id="paint5_linear_4_4993" x1="377.51" y1="1923.87" x2="459.434" y2="2026.51" gradientUnits="userSpaceOnUse">
<stop stop-color="#FA8C14"/>
<stop offset="1" stop-color="#F95A08"/>
</linearGradient>
<linearGradient id="paint6_linear_4_4993" x1="378.534" y1="1923.38" x2="460.381" y2="2034.39" gradientUnits="userSpaceOnUse">
<stop stop-color="#FA8C14"/>
<stop offset="1" stop-color="#F95A08"/>
</linearGradient>
<linearGradient id="paint7_linear_4_4993" x1="382.358" y1="1775.44" x2="386.955" y2="1800.62" gradientUnits="userSpaceOnUse">
<stop stop-color="#FA8C14"/>
<stop offset="1" stop-color="#F95A08"/>
</linearGradient>
<linearGradient id="paint8_linear_4_4993" x1="382.358" y1="1775.44" x2="386.955" y2="1800.62" gradientUnits="userSpaceOnUse">
<stop stop-color="#FA8C14"/>
<stop offset="1" stop-color="#F95A08"/>
</linearGradient>
<linearGradient id="paint9_linear_4_4993" x1="321.858" y1="1806.13" x2="545.713" y2="1971.55" gradientUnits="userSpaceOnUse">
<stop stop-color="#FA8C14"/>
<stop offset="1" stop-color="#F95A08"/>
</linearGradient>
<linearGradient id="paint10_linear_4_4993" x1="387.599" y1="2245.37" x2="388.008" y2="2252.29" gradientUnits="userSpaceOnUse">
<stop stop-color="#FA8C14"/>
<stop offset="1" stop-color="#F95A08"/>
</linearGradient>
<linearGradient id="paint11_linear_4_4993" x1="387.599" y1="2245.37" x2="388.008" y2="2252.29" gradientUnits="userSpaceOnUse">
<stop stop-color="#FA8C14"/>
<stop offset="1" stop-color="#F95A08"/>
</linearGradient>
<linearGradient id="paint12_linear_4_4993" x1="528.184" y1="1964.73" x2="542.33" y2="1976.39" gradientUnits="userSpaceOnUse">
<stop stop-color="#FA8C14"/>
<stop offset="1" stop-color="#F95A08"/>
</linearGradient>
<linearGradient id="paint13_linear_4_4993" x1="557.925" y1="1964.5" x2="571.16" y2="1976.31" gradientUnits="userSpaceOnUse">
<stop stop-color="#FA8C14"/>
<stop offset="1" stop-color="#F95A08"/>
</linearGradient>
<linearGradient id="paint14_linear_4_4993" x1="515.229" y1="1995.2" x2="560.379" y2="2052.3" gradientUnits="userSpaceOnUse">
<stop stop-color="#FA8C14"/>
<stop offset="1" stop-color="#F95A08"/>
</linearGradient>
<linearGradient id="paint15_linear_4_4993" x1="538.443" y1="2103.91" x2="545.509" y2="2089.02" gradientUnits="userSpaceOnUse">
<stop stop-color="#FA8C14"/>
<stop offset="1" stop-color="#F95A08"/>
</linearGradient>
<linearGradient id="paint16_linear_4_4993" x1="521.745" y1="2130.73" x2="548.032" y2="2236.26" gradientUnits="userSpaceOnUse">
<stop stop-color="#FA8C14"/>
<stop offset="1" stop-color="#F95A08"/>
</linearGradient>
<linearGradient id="paint17_linear_4_4993" x1="521.745" y1="2130.73" x2="548.032" y2="2236.26" gradientUnits="userSpaceOnUse">
<stop stop-color="#FA8C14"/>
<stop offset="1" stop-color="#F95A08"/>
</linearGradient>
<linearGradient id="paint18_linear_4_4993" x1="1748.65" y1="1907.26" x2="1857.49" y2="2043.73" gradientUnits="userSpaceOnUse">
<stop stop-color="#FA8C14"/>
<stop offset="1" stop-color="#F95A08"/>
</linearGradient>
<linearGradient id="paint19_linear_4_4993" x1="1482.68" y1="1926.75" x2="1564.61" y2="2029.39" gradientUnits="userSpaceOnUse">
<stop stop-color="#FA8C14"/>
<stop offset="1" stop-color="#F95A08"/>
</linearGradient>
<linearGradient id="paint20_linear_4_4993" x1="1482.68" y1="1926.75" x2="1564.61" y2="2029.39" gradientUnits="userSpaceOnUse">
<stop stop-color="#FA8C14"/>
<stop offset="1" stop-color="#F95A08"/>
</linearGradient>
<linearGradient id="paint21_linear_4_4993" x1="1483.71" y1="1926.26" x2="1565.56" y2="2037.28" gradientUnits="userSpaceOnUse">
<stop stop-color="#FA8C14"/>
<stop offset="1" stop-color="#F95A08"/>
</linearGradient>
<linearGradient id="paint22_linear_4_4993" x1="1487.53" y1="1778.32" x2="1492.13" y2="1803.5" gradientUnits="userSpaceOnUse">
<stop stop-color="#FA8C14"/>
<stop offset="1" stop-color="#F95A08"/>
</linearGradient>
<linearGradient id="paint23_linear_4_4993" x1="1487.53" y1="1778.32" x2="1492.13" y2="1803.5" gradientUnits="userSpaceOnUse">
<stop stop-color="#FA8C14"/>
<stop offset="1" stop-color="#F95A08"/>
</linearGradient>
<linearGradient id="paint24_linear_4_4993" x1="1427.03" y1="1809.01" x2="1650.89" y2="1974.43" gradientUnits="userSpaceOnUse">
<stop stop-color="#FA8C14"/>
<stop offset="1" stop-color="#F95A08"/>
</linearGradient>
<linearGradient id="paint25_linear_4_4993" x1="1492.77" y1="2248.26" x2="1493.18" y2="2255.18" gradientUnits="userSpaceOnUse">
<stop stop-color="#FA8C14"/>
<stop offset="1" stop-color="#F95A08"/>
</linearGradient>
<linearGradient id="paint26_linear_4_4993" x1="1492.77" y1="2248.26" x2="1493.18" y2="2255.18" gradientUnits="userSpaceOnUse">
<stop stop-color="#FA8C14"/>
<stop offset="1" stop-color="#F95A08"/>
</linearGradient>
<linearGradient id="paint27_linear_4_4993" x1="1633.35" y1="1967.61" x2="1647.5" y2="1979.28" gradientUnits="userSpaceOnUse">
<stop stop-color="#FA8C14"/>
<stop offset="1" stop-color="#F95A08"/>
</linearGradient>
<linearGradient id="paint28_linear_4_4993" x1="1663.09" y1="1967.38" x2="1676.33" y2="1979.19" gradientUnits="userSpaceOnUse">
<stop stop-color="#FA8C14"/>
<stop offset="1" stop-color="#F95A08"/>
</linearGradient>
<linearGradient id="paint29_linear_4_4993" x1="1620.4" y1="1998.09" x2="1665.55" y2="2055.18" gradientUnits="userSpaceOnUse">
<stop stop-color="#FA8C14"/>
<stop offset="1" stop-color="#F95A08"/>
</linearGradient>
<linearGradient id="paint30_linear_4_4993" x1="1643.61" y1="2106.8" x2="1650.68" y2="2091.9" gradientUnits="userSpaceOnUse">
<stop stop-color="#FA8C14"/>
<stop offset="1" stop-color="#F95A08"/>
</linearGradient>
<linearGradient id="paint31_linear_4_4993" x1="1624.74" y1="2125.73" x2="1651.03" y2="2231.26" gradientUnits="userSpaceOnUse">
<stop stop-color="#FA8C14"/>
<stop offset="1" stop-color="#F95A08"/>
</linearGradient>
<linearGradient id="paint32_linear_4_4993" x1="1624.74" y1="2125.73" x2="1651.03" y2="2231.26" gradientUnits="userSpaceOnUse">
<stop stop-color="#FA8C14"/>
<stop offset="1" stop-color="#F95A08"/>
</linearGradient>
<linearGradient id="paint33_linear_4_4993" x1="2307.14" y1="646.772" x2="2662.76" y2="1146.43" gradientUnits="userSpaceOnUse">
<stop stop-color="#FA8C14"/>
<stop offset="1" stop-color="#F95A08"/>
</linearGradient>
</defs>
</svg>
