<svg width="72" height="72" viewBox="0 0 72 72" fill="none" xmlns="http://www.w3.org/2000/svg">
<path fill-rule="evenodd" clip-rule="evenodd" d="M42.1472 10.9492H45.8482V11.0252C45.8482 13.5852 44.9162 15.9752 43.0572 18.1882C40.8132 20.8182 38.0992 22.3382 35.1572 22.0982C35.1176 21.7764 35.0975 21.4525 35.0972 21.1282C35.0972 18.6712 36.1642 16.0402 38.0592 13.8902C39.0052 12.8002 40.2082 11.8962 41.6672 11.1732C41.8272 11.0952 41.9872 11.0202 42.1472 10.9492ZM15.1992 30.8562C15.3892 30.4592 15.5962 30.0732 15.8192 29.6982C16.9842 27.7062 18.5322 26.1352 20.4692 24.9822C22.3695 23.8417 24.5391 23.2276 26.7552 23.2032C27.9892 23.2032 29.6072 23.5862 31.6172 24.3382C33.6222 25.0922 34.9092 25.4752 35.4732 25.4752C35.8952 25.4752 37.3252 25.0272 39.7492 24.1352C42.0422 23.3082 43.9772 22.9652 45.5622 23.1012C49.8572 23.4482 53.0832 25.1462 55.2292 28.2052C53.9462 28.9852 52.8792 29.8682 52.0292 30.8562H15.1992Z" fill="#5C9E31"/>
<path d="M42.1469 10.9492V9.94922C42.0066 9.94935 41.8679 9.979 41.7399 10.0362L42.1469 10.9492ZM45.8479 10.9492L46.8479 10.9422C46.846 10.6782 46.7398 10.4257 46.5525 10.2396C46.3652 10.0536 46.1119 9.94921 45.8479 9.94922V10.9492ZM43.0569 18.1892L43.8169 18.8372L43.8219 18.8312L43.0559 18.1882L43.0569 18.1892ZM35.1569 22.0992L34.1639 22.2192C34.1917 22.4478 34.2975 22.6598 34.4634 22.8194C34.6294 22.979 34.8454 23.0764 35.0749 23.0952L35.1559 22.0982L35.1569 22.0992ZM38.0589 13.8892L38.8089 14.5512L38.8139 14.5462L38.0589 13.8902V13.8892ZM41.6669 11.1732L41.2269 10.2752L41.2229 10.2772L41.6669 11.1732ZM15.1989 30.8562L14.2969 30.4252C14.2241 30.5776 14.1911 30.746 14.2009 30.9146C14.2108 31.0832 14.2632 31.2466 14.3533 31.3895C14.4433 31.5323 14.5681 31.6501 14.716 31.7317C14.8638 31.8133 15.03 31.8562 15.1989 31.8562V30.8562ZM15.8189 29.6982L16.6789 30.2102L16.6829 30.2022L15.8189 29.6982ZM26.7549 23.2032V22.2032H26.7389L26.7549 23.2032ZM31.6169 24.3382L31.9689 23.4022H31.9669L31.6169 24.3382ZM39.7489 24.1352L39.4099 23.1952L39.4039 23.1972L39.7489 24.1352ZM45.5619 23.1012L45.4769 24.0972H45.4809L45.5619 23.1012ZM55.2289 28.2052L55.7489 29.0592C55.8658 28.9881 55.9669 28.8938 56.0459 28.782C56.1249 28.6703 56.1802 28.5435 56.2082 28.4095C56.2362 28.2756 56.2364 28.1373 56.2089 28.0033C56.1813 27.8692 56.1265 27.7422 56.0479 27.6302L55.2289 28.2052ZM52.0289 30.8562V31.8562C52.1727 31.8563 52.3149 31.8254 52.4458 31.7655C52.5766 31.7056 52.6929 31.6182 52.7869 31.5092L52.0289 30.8562ZM42.1469 11.9492H45.8479V9.94922H42.1469V11.9492ZM44.8479 10.9562V11.0262H46.8479V10.9422L44.8479 10.9562ZM44.8479 11.0262C44.8479 13.3192 44.0199 15.4872 42.2909 17.5452L43.8219 18.8312C45.8119 16.4642 46.8479 13.8522 46.8479 11.0262H44.8479ZM42.2959 17.5392C40.1759 20.0252 37.7489 21.3062 35.2379 21.1022L35.0749 23.0952C38.4499 23.3702 41.4499 21.6122 43.8169 18.8372L42.2959 17.5392ZM36.1489 21.9772C36.1143 21.6955 36.0969 21.412 36.0969 21.1282H34.0969C34.0969 21.5112 34.1219 21.8752 34.1639 22.2192L36.1489 21.9772ZM36.0969 21.1282C36.0969 18.9502 37.0499 16.5482 38.8089 14.5512L37.3089 13.2292C35.2789 15.5332 34.0969 18.3902 34.0969 21.1282H36.0969ZM38.8139 14.5462C39.6619 13.5692 40.7539 12.7412 42.1109 12.0702L41.2229 10.2772C39.6609 11.0502 38.3469 12.0332 37.3039 13.2342L38.8139 14.5462ZM42.1059 12.0722C42.2559 11.9982 42.4059 11.9282 42.5539 11.8622L41.7399 10.0362C41.5699 10.1112 41.3989 10.1912 41.2269 10.2752L42.1059 12.0722ZM16.1009 31.2882C16.2779 30.9182 16.4709 30.5592 16.6789 30.2102L14.9609 29.1852C14.7209 29.5872 14.4999 30.0002 14.2969 30.4252L16.1009 31.2882ZM16.6829 30.2022C17.7629 28.3532 19.1929 26.9062 20.9809 25.8412L19.9579 24.1222C17.8709 25.3642 16.2029 27.0592 14.9569 29.1932L16.6829 30.2022ZM20.9809 25.8412C22.7309 24.7902 24.7296 24.2248 26.7709 24.2032L26.7389 22.2032C24.3119 22.2432 22.0469 22.8782 19.9579 24.1222L20.9809 25.8412ZM26.7549 24.2032C27.8099 24.2032 29.2949 24.5372 31.2669 25.2742L31.9669 23.4022C29.9189 22.6362 28.1669 22.2032 26.7549 22.2032V24.2032ZM31.2649 25.2732C32.0999 25.595 32.9461 25.8868 33.8019 26.1482C34.4439 26.3382 35.0319 26.4752 35.4729 26.4752V24.4752C35.3509 24.4752 35.0129 24.4202 34.3689 24.2302C33.5595 23.9821 32.759 23.7059 31.9689 23.4022L31.2649 25.2742V25.2732ZM35.4729 26.4752C35.7079 26.4752 35.9769 26.4202 36.2129 26.3632C36.4749 26.3002 36.7929 26.2092 37.1589 26.0942C38.1454 25.7772 39.1243 25.4371 40.0949 25.0742L39.4039 23.1972C38.464 23.5485 37.5171 23.8779 36.5619 24.1852C36.2159 24.2942 35.9449 24.3702 35.7439 24.4192C35.5179 24.4742 35.4489 24.4752 35.4729 24.4752V26.4752ZM40.0889 25.0762C42.3089 24.2752 44.0909 23.9792 45.4769 24.0972L45.6469 22.1042C43.8619 21.9522 41.7739 22.3432 39.4099 23.1952L40.0889 25.0762ZM45.4809 24.0972C49.5309 24.4252 52.4639 26.0042 54.4109 28.7792L56.0479 27.6302C53.7029 24.2882 50.1809 22.4712 45.6419 22.1042L45.4809 24.0972ZM54.7099 27.3502C53.3499 28.1762 52.1999 29.1262 51.2709 30.2042L52.7869 31.5092C53.5599 30.6112 54.5419 29.7932 55.7489 29.0592L54.7099 27.3502ZM52.0299 29.8562H15.1979V31.8562H52.0289L52.0279 29.8562H52.0299Z" fill="#5C9E31"/>
<path fill-rule="evenodd" clip-rule="evenodd" d="M54.2605 29C51.6935 30.832 50.1705 33.167 49.6905 36H13.7695C14.0645 33.702 14.7485 31.652 15.8215 29.855C15.9935 29.561 16.1735 29.275 16.3615 29H54.2615H54.2605Z" fill="#FCEA2B"/>
<path fill-rule="evenodd" clip-rule="evenodd" d="M49.8676 35C49.6296 35.94 49.5156 36.94 49.5256 38C49.5456 39.842 49.9296 41.509 50.6766 43H13.9866C13.7317 41.5357 13.6022 40.0523 13.5996 38.566C13.5996 37.314 13.6976 36.126 13.8946 35H49.8676Z" fill="#F4AA41"/>
<path fill-rule="evenodd" clip-rule="evenodd" d="M50.0754 42C50.6394 43.749 51.6354 45.288 53.0654 46.616C54.0915 47.6011 55.2897 48.3895 56.6004 48.942L56.5804 49H15.4834C15.4014 48.776 15.3214 48.55 15.2424 48.322C14.5054 46.169 14.0154 44.062 13.7754 42H50.0754Z" fill="#EA5A47"/>
<path fill-rule="evenodd" clip-rule="evenodd" d="M53.2438 56C54.1996 54.5696 55.0218 53.0542 55.6998 51.473C56.026 50.6921 56.3265 49.9006 56.6008 49.1C56.5238 49.0675 56.4471 49.0342 56.3708 49H15.4258C16.3758 51.627 17.5558 53.958 18.9638 56H53.2438Z" fill="#8967AA"/>
<path fill-rule="evenodd" clip-rule="evenodd" d="M26.1392 62C25.0412 61.736 23.9452 61.094 22.8502 60.074C21.9222 59.262 20.7742 57.904 19.4102 56H52.8062C51.4302 57.95 50.2982 59.308 49.4192 60.074C48.2592 61.144 47.0312 61.784 45.7312 62H43.8272C42.8972 61.865 41.8472 61.558 40.6772 61.075C39.0402 60.405 37.5352 60.074 36.1592 60.074C34.7162 60.074 33.1682 60.406 31.5122 61.076C30.3922 61.53 29.4202 61.837 28.5922 62H26.1392Z" fill="#61B2E4"/>
<path d="M35.1556 22.097C35.1163 21.7752 35.0966 21.4512 35.0966 21.127C35.0966 18.67 36.1636 16.039 38.0586 13.889C39.0046 12.799 40.2076 11.895 41.6666 11.172C43.1226 10.461 44.4996 10.067 45.7946 10C45.8326 10.342 45.8476 10.684 45.8476 11.024C45.8476 13.584 44.9156 15.974 43.0566 18.187C42.2266 19.16 41.3316 19.982 40.3846 20.618M55.6986 50.841C54.9539 52.5792 54.0342 54.2371 52.9536 55.789C51.5106 57.852 50.3286 59.281 49.4186 60.074C48.0066 61.376 46.4936 62.042 44.8746 62.08C43.7116 62.08 42.3096 61.749 40.6776 61.075C39.0396 60.405 37.5346 60.074 36.1576 60.074C34.7156 60.074 33.1676 60.406 31.5116 61.076C29.8536 61.749 28.5176 62.099 27.4966 62.134C25.9436 62.2 24.3956 61.514 22.8496 60.074C21.8636 59.211 20.6296 57.732 19.1526 55.638C17.5666 53.4 16.2626 50.806 15.2416 47.848C14.1476 44.654 13.5996 41.56 13.5996 38.566C13.5996 35.136 14.3396 32.176 15.8196 29.696C16.9836 27.706 18.5316 26.134 20.4696 24.981C22.3696 23.8406 24.5388 23.2266 26.7546 23.202C27.9886 23.202 29.6066 23.585 31.6166 24.337C33.6216 25.091 34.9086 25.474 35.4726 25.474C35.8946 25.474 37.3246 25.026 39.7486 24.134C42.0416 23.307 43.9766 22.964 45.5616 23.1C49.8566 23.447 53.0826 25.145 55.2286 28.204C51.3886 30.538 49.4876 33.806 49.5256 38C49.5596 41.266 50.7416 43.984 53.0636 46.142C54.09 47.1272 55.2886 47.9155 56.5996 48.468C56.3255 49.2687 56.025 50.0602 55.6986 50.841Z" stroke="black" stroke-width="2" stroke-linecap="round" stroke-linejoin="round"/>
</svg>
